<svg width="32" height="40" viewBox="0 0 32 40" fill="none" xmlns="http://www.w3.org/2000/svg">
<path d="M9.14286 31.1111C9.14286 32.3333 8.11429 33.3333 6.85714 33.3333C5.6 33.3333 4.57143 32.3333 4.57143 31.1111C4.57143 29.8889 5.6 28.8889 6.85714 28.8889C8.11429 28.8889 9.14286 29.8889 9.14286 31.1111ZM16 28.8889C14.7429 28.8889 13.7143 29.8889 13.7143 31.1111C13.7143 32.3333 14.7429 33.3333 16 33.3333C17.2571 33.3333 18.2857 32.3333 18.2857 31.1111C18.2857 29.8889 17.2571 28.8889 16 28.8889ZM25.1429 28.8889C23.8857 28.8889 22.8571 29.8889 22.8571 31.1111C22.8571 32.3333 23.8857 33.3333 25.1429 33.3333C26.4 33.3333 27.4286 32.3333 27.4286 31.1111C27.4286 29.8889 26.4 28.8889 25.1429 28.8889ZM32 20V24.4444H0V20C0 12.1556 5.96571 5.71111 13.7143 4.62222V0H18.2857V4.62222C26.0343 5.71111 32 12.1556 32 20ZM27.4286 20C27.4286 13.8667 22.3086 8.88889 16 8.88889C9.69143 8.88889 4.57143 13.8667 4.57143 20H27.4286ZM6.85714 35.5556C5.6 35.5556 4.57143 36.5556 4.57143 37.7778C4.57143 39 5.6 40 6.85714 40C8.11429 40 9.14286 39 9.14286 37.7778C9.14286 36.5556 8.11429 35.5556 6.85714 35.5556ZM16 35.5556C14.7429 35.5556 13.7143 36.5556 13.7143 37.7778C13.7143 39 14.7429 40 16 40C17.2571 40 18.2857 39 18.2857 37.7778C18.2857 36.5556 17.2571 35.5556 16 35.5556ZM25.1429 35.5556C23.8857 35.5556 22.8571 36.5556 22.8571 37.7778C22.8571 39 23.8857 40 25.1429 40C26.4 40 27.4286 39 27.4286 37.7778C27.4286 36.5556 26.4 35.5556 25.1429 35.5556Z" fill="white"/>
</svg>
