<svg width="35" height="35" viewBox="0 0 35 35" fill="none" xmlns="http://www.w3.org/2000/svg">
<mask id="mask0_6315_23754" style="mask-type:alpha" maskUnits="userSpaceOnUse" x="0" y="0" width="35" height="35">
<rect width="35" height="35" fill="#D9D9D9"/>
</mask>
<g mask="url(#mask0_6315_23754)">
<path d="M17.5 24.0625C19.3229 24.0625 20.8726 23.4247 22.1492 22.1491C23.4247 20.8726 24.0625 19.3229 24.0625 17.5C24.0625 15.677 23.4247 14.1273 22.1492 12.8508C20.8726 11.5752 19.3229 10.9375 17.5 10.9375C15.6771 10.9375 14.1274 11.5752 12.8508 12.8508C11.5753 14.1273 10.9375 15.677 10.9375 17.5C10.9375 19.3229 11.5753 20.8726 12.8508 22.1491C14.1274 23.4247 15.6771 24.0625 17.5 24.0625ZM17.5 18.9583C17.0868 18.9583 16.7407 18.8183 16.4617 18.5383C16.1817 18.2593 16.0417 17.9132 16.0417 17.5C16.0417 17.0868 16.1817 16.7402 16.4617 16.4602C16.7407 16.1811 17.0868 16.0416 17.5 16.0416C17.9132 16.0416 18.2598 16.1811 18.5398 16.4602C18.8188 16.7402 18.9583 17.0868 18.9583 17.5C18.9583 17.9132 18.8188 18.2593 18.5398 18.5383C18.2598 18.8183 17.9132 18.9583 17.5 18.9583ZM17.5 32.0833C15.4826 32.0833 13.5868 31.7002 11.8125 30.9341C10.0382 30.169 8.49478 29.1302 7.18228 27.8177C5.86978 26.5052 4.83096 24.9618 4.06582 23.1875C3.29971 21.4132 2.91666 19.5173 2.91666 17.5C2.91666 15.4826 3.29971 13.5868 4.06582 11.8125C4.83096 10.0382 5.86978 8.49475 7.18228 7.18225C8.49478 5.86975 10.0382 4.83045 11.8125 4.06433C13.5868 3.2992 15.4826 2.91663 17.5 2.91663C19.5173 2.91663 21.4132 3.2992 23.1875 4.06433C24.9618 4.83045 26.5052 5.86975 27.8177 7.18225C29.1302 8.49475 30.169 10.0382 30.9342 11.8125C31.7003 13.5868 32.0833 15.4826 32.0833 17.5C32.0833 19.5173 31.7003 21.4132 30.9342 23.1875C30.169 24.9618 29.1302 26.5052 27.8177 27.8177C26.5052 29.1302 24.9618 30.169 23.1875 30.9341C21.4132 31.7002 19.5173 32.0833 17.5 32.0833ZM17.5 29.1666C20.7569 29.1666 23.5156 28.0364 25.776 25.776C28.0364 23.5156 29.1667 20.7569 29.1667 17.5C29.1667 14.243 28.0364 11.4843 25.776 9.22392C23.5156 6.9635 20.7569 5.83329 17.5 5.83329C14.243 5.83329 11.4844 6.9635 9.22395 9.22392C6.96353 11.4843 5.83332 14.243 5.83332 17.5C5.83332 20.7569 6.96353 23.5156 9.22395 25.776C11.4844 28.0364 14.243 29.1666 17.5 29.1666Z" fill="white"/>
</g>
</svg>
