<svg width="24" height="30" viewBox="0 0 24 30" fill="none" xmlns="http://www.w3.org/2000/svg">
<path fill-rule="evenodd" clip-rule="evenodd" d="M3 0L21 0.015C22.665 0.015 24 1.335 24 3V27C24 28.665 22.665 30 21 30H3C1.335 30 0 28.665 0 27V3C0 1.335 1.335 0 3 0ZM21 27V3H2.985L3 27H21ZM7.5 6C7.5 6.82843 6.82843 7.5 6 7.5C5.17157 7.5 4.5 6.82843 4.5 6C4.5 5.17157 5.17157 4.5 6 4.5C6.82843 4.5 7.5 5.17157 7.5 6ZM10.5 7.5C11.3284 7.5 12 6.82843 12 6C12 5.17157 11.3284 4.5 10.5 4.5C9.67157 4.5 9 5.17157 9 6C9 6.82843 9.67157 7.5 10.5 7.5ZM19.5 18C19.5 22.14 16.14 25.5 12 25.5C7.86 25.5 4.5 22.14 4.5 18C4.5 13.86 7.86 10.5 12 10.5C16.14 10.5 19.5 13.86 19.5 18ZM15.54 21.54C17.49 19.59 17.49 16.41 15.54 14.46L8.46 21.54C10.41 23.49 13.59 23.49 15.54 21.54Z" fill="white"/>
</svg>
