<svg width="28" height="41" viewBox="0 0 28 41" fill="none" xmlns="http://www.w3.org/2000/svg">
<path fill-rule="evenodd" clip-rule="evenodd" d="M18 4.14282C19.0137 4.14282 20 5.03472 20 6.34282C20 7.44739 20.8954 8.34282 22 8.34282C23.1046 8.34282 24 7.44739 24 6.34282C24 3.01173 21.4045 0.142822 18 0.142822C14.5955 0.142822 12 3.01173 12 6.34282V6.49226C11.3789 6.26646 10.7069 6.14278 10 6.14278C6.59547 6.14278 4.00001 9.01169 4.00001 12.3428C4.00001 13.4474 4.89544 14.3428 6.00001 14.3428C7.10458 14.3428 8.00001 13.4474 8.00001 12.3428C8.00001 11.0347 8.98627 10.1428 10 10.1428C11.0114 10.1428 11.9955 11.0306 12 12.3339V18.1428H2C0.895431 18.1428 0 19.0382 0 20.1428C0 25.7275 3.2701 30.5486 7.99998 32.7955L7.99998 36.1428H4C2.89543 36.1428 2 37.0382 2 38.1428C2 39.2474 2.89543 40.1428 4 40.1428H9.98689L9.99998 40.1428L10.0131 40.1428H17.9869L18 40.1428L18.0131 40.1428H24C25.1046 40.1428 26 39.2474 26 38.1428C26 37.0382 25.1046 36.1428 24 36.1428H20V32.7955C24.7299 30.5486 28 25.7276 28 20.1428C28 19.0382 27.1046 18.1428 26 18.1428H16V12.3428L16 12.3292V6.34282C16 5.03472 16.9863 4.14282 18 4.14282ZM4.20004 22.1428H13.9837L14 22.1428L14.0163 22.1428H23.8C22.8734 26.7072 18.8379 30.1428 14 30.1428C9.16209 30.1428 5.12658 26.7072 4.20004 22.1428ZM14 34.1428C14.679 34.1428 15.3468 34.0944 16 34.001V36.1428H12V34.001C12.6532 34.0944 13.321 34.1428 14 34.1428ZM22 14.1428C23.1046 14.1428 24 13.2474 24 12.1428C24 11.0383 23.1046 10.1428 22 10.1428C20.8954 10.1428 20 11.0383 20 12.1428C20 13.2474 20.8954 14.1428 22 14.1428Z" fill="white"/>
</svg>
