<svg width="51" height="46" viewBox="0 0 51 46" fill="none" xmlns="http://www.w3.org/2000/svg">
<mask id="mask0_6315_23748" style="mask-type:alpha" maskUnits="userSpaceOnUse" x="0" y="0" width="51" height="46">
<rect width="51" height="46" fill="#D9D9D9"/>
</mask>
<g mask="url(#mask0_6315_23748)">
<path d="M13.1219 2.68333L16.15 0L34.3719 16.4354C35.1865 17.1701 35.5938 18.0806 35.5938 19.1667C35.5938 20.2528 35.1865 21.1632 34.3719 21.8979L24.2781 31.0021C23.4635 31.7368 22.4542 32.1042 21.25 32.1042C20.0458 32.1042 19.0365 31.7368 18.2219 31.0021L8.12813 21.8979C7.31354 21.1632 6.90625 20.2528 6.90625 19.1667C6.90625 18.0806 7.31354 17.1701 8.12813 16.4354L18.2219 7.28333L13.1219 2.68333ZM21.25 10.0146L11.1031 19.1667H31.3969L21.25 10.0146ZM40.375 32.5833C39.2062 32.5833 38.2054 32.2083 37.3724 31.4582C36.5408 30.7069 36.125 29.8042 36.125 28.75C36.125 28.0792 36.346 27.3604 36.788 26.5937C37.2314 25.8271 37.7188 25.1083 38.25 24.4375C38.5688 24.0542 38.9052 23.6549 39.2594 23.2396C39.6135 22.8243 39.9854 22.425 40.375 22.0417C40.7646 22.425 41.1365 22.8243 41.4906 23.2396C41.8448 23.6549 42.1812 24.0542 42.5 24.4375C43.0312 25.1083 43.5186 25.8271 43.962 26.5937C44.404 27.3604 44.625 28.0792 44.625 28.75C44.625 29.8042 44.2092 30.7069 43.3776 31.4582C42.5446 32.2083 41.5438 32.5833 40.375 32.5833ZM4.25 46V38.3333H46.75V46H4.25Z" fill="white"/>
</g>
</svg>
