<svg width="127" height="40" viewBox="0 0 127 40" fill="none" xmlns="http://www.w3.org/2000/svg">
<path fill-rule="evenodd" clip-rule="evenodd" d="M116.978 0H9.535C9.168 0 8.806 0 8.44 0.002C8.134 0.004 7.83 0.01 7.521 0.015C6.855 0.031 6.182 0.072 5.517 0.191C4.848 0.309 4.226 0.509 3.616 0.818C3.018 1.125 2.471 1.523 1.998 1.997C1.519 2.471 1.123 3.02 0.819 3.618C0.508 4.227 0.311 4.852 0.194 5.521C0.074 6.184 0.032 6.854 0.015 7.523C0.006 7.83 0.005 8.138 0 8.444V9.536V30.465V31.559C0.005 31.869 0.006 32.17 0.015 32.48C0.032 33.15 0.074 33.82 0.194 34.482C0.311 35.152 0.508 35.78 0.819 36.387C1.123 36.982 1.519 37.531 1.998 38.001C2.471 38.479 3.018 38.876 3.616 39.18C4.226 39.492 4.848 39.689 5.517 39.811C6.182 39.93 6.855 39.969 7.521 39.987C7.83 39.994 8.134 39.998 8.44 39.998C8.806 40 9.168 40 9.535 40H116.978C117.337 40 117.703 40 118.062 39.998C118.367 39.998 118.679 39.994 118.984 39.987C119.654 39.969 120.326 39.93 120.984 39.811C121.654 39.689 122.277 39.492 122.892 39.18C123.49 38.876 124.037 38.479 124.509 38.001C124.986 37.531 125.382 36.982 125.691 36.387C125.998 35.78 126.197 35.152 126.31 34.482C126.433 33.82 126.472 33.15 126.496 32.48C126.499 32.17 126.499 31.869 126.499 31.559C126.507 31.195 126.507 30.834 126.507 30.465V9.536C126.507 9.17 126.507 8.807 126.499 8.444C126.499 8.138 126.499 7.83 126.496 7.523C126.472 6.854 126.433 6.184 126.31 5.521C126.197 4.852 125.998 4.227 125.691 3.618C125.382 3.02 124.986 2.471 124.509 1.997C124.037 1.523 123.49 1.125 122.892 0.818C122.277 0.509 121.654 0.309 120.984 0.191C120.326 0.072 119.654 0.031 118.984 0.015C118.679 0.01 118.367 0.004 118.062 0.002C117.703 0 117.337 0 116.978 0Z" fill="white"/>
<path fill-rule="evenodd" clip-rule="evenodd" d="M8.4448 39.125C8.1398 39.125 7.8428 39.121 7.5408 39.114C6.9818 39.099 6.3188 39.067 5.6718 38.951C5.0608 38.841 4.5188 38.661 4.0148 38.403C3.4928 38.139 3.0248 37.797 2.6178 37.387C2.2038 36.98 1.8628 36.514 1.5968 35.99C1.3378 35.485 1.1608 34.943 1.0538 34.333C0.931803 33.66 0.900803 32.978 0.887803 32.458C0.881803 32.247 0.872803 31.545 0.872803 31.545V8.444C0.872803 8.444 0.881803 7.753 0.887803 7.55C0.900803 7.026 0.931803 6.344 1.0528 5.678C1.1598 5.064 1.3378 4.522 1.5968 4.016C1.8618 3.491 2.2028 3.022 2.6118 2.618C3.0258 2.204 3.4958 1.861 4.0138 1.595C4.5278 1.334 5.0698 1.156 5.6678 1.051C6.3408 0.931 7.0238 0.9 7.5428 0.887L8.4448 0.875H118.057L118.97 0.888C119.483 0.9 120.166 0.931 120.829 1.05C121.431 1.156 121.976 1.335 122.5 1.598C123.012 1.861 123.482 2.204 123.891 2.614C124.3 3.02 124.643 3.492 124.915 4.018C125.173 4.529 125.348 5.071 125.45 5.667C125.566 6.298 125.602 6.946 125.624 7.554C125.627 7.837 125.627 8.142 125.627 8.444C125.634 8.819 125.634 9.176 125.634 9.536V30.465C125.634 30.828 125.634 31.183 125.627 31.54C125.627 31.865 125.627 32.163 125.623 32.47C125.602 33.059 125.566 33.706 125.452 34.323C125.348 34.937 125.173 35.479 124.912 35.993C124.642 36.513 124.299 36.982 123.896 37.379C123.483 37.797 123.014 38.138 122.497 38.401C121.978 38.665 121.449 38.84 120.829 38.951C120.188 39.067 119.525 39.099 118.96 39.114C118.667 39.121 118.36 39.125 118.062 39.125L116.978 39.127L8.4448 39.125Z" fill="#0A0A05"/>
<path fill-rule="evenodd" clip-rule="evenodd" d="M24.7719 20.3008C24.7469 17.5498 27.0239 16.2118 27.1279 16.1488C25.8389 14.2678 23.8389 14.0108 23.1369 13.9908C21.4579 13.8148 19.8299 14.9958 18.9739 14.9958C18.1019 14.9958 16.7849 14.0088 15.3659 14.0378C13.5399 14.0658 11.8299 15.1238 10.8929 16.7658C8.9589 20.1138 10.4009 25.0348 12.2539 27.7408C13.1809 29.0678 14.2639 30.5478 15.6819 30.4948C17.0689 30.4378 17.5869 29.6108 19.2609 29.6108C20.9199 29.6108 21.4059 30.4948 22.8519 30.4618C24.3399 30.4378 25.2779 29.1298 26.1719 27.7918C27.2439 26.2728 27.6739 24.7768 27.6909 24.6998C27.6559 24.6878 24.7999 23.5988 24.7719 20.3008Z" fill="#FFFFFE"/>
<path fill-rule="evenodd" clip-rule="evenodd" d="M22.0401 12.211C22.7861 11.278 23.2961 10.009 23.1551 8.71997C22.0751 8.76797 20.7251 9.46697 19.9471 10.38C19.2591 11.184 18.6441 12.503 18.8031 13.741C20.0161 13.832 21.2621 13.129 22.0401 12.211Z" fill="#FFFFFE"/>
<path fill-rule="evenodd" clip-rule="evenodd" d="M35.6553 14.7016V9.57762H33.7783V8.73462H38.4553V9.57762H36.5823V14.7016H35.6553Z" fill="#FFFFFE"/>
<path fill-rule="evenodd" clip-rule="evenodd" d="M40.2754 9.44568L41.3134 8.02368H42.3554L41.1934 9.44568H40.2754ZM39.6384 12.0347H41.9134C41.8924 11.3277 41.4624 10.8677 40.8044 10.8677C40.1474 10.8677 39.6884 11.3317 39.6384 12.0347ZM42.7644 13.4857C42.5624 14.2927 41.8424 14.7887 40.8134 14.7887C39.5234 14.7887 38.7334 13.9037 38.7334 12.4647C38.7334 11.0257 39.5404 10.1117 40.8094 10.1117C42.0624 10.1117 42.8184 10.9677 42.8184 12.3817V12.6917H39.6384V12.7417C39.6684 13.5307 40.1274 14.0317 40.8374 14.0317C41.3764 14.0317 41.7444 13.8377 41.9094 13.4857H42.7644Z" fill="#FFFFFE"/>
<mask id="mask0_6161_1615" style="mask-type:alpha" maskUnits="userSpaceOnUse" x="0" y="0" width="127" height="40">
<path d="M0 40H126.508V0H0V40Z" fill="white"/>
</mask>
<g mask="url(#mask0_6161_1615)">
<path fill-rule="evenodd" clip-rule="evenodd" d="M44.053 14.7019H44.942V8.44092H44.053V14.7019Z" fill="#FFFFFE"/>
<path fill-rule="evenodd" clip-rule="evenodd" d="M47.7188 9.44568L48.7568 8.02368H49.7988L48.6368 9.44568H47.7188ZM47.0818 12.0347H49.3568C49.3358 11.3277 48.9058 10.8677 48.2478 10.8677C47.5908 10.8677 47.1318 11.3317 47.0818 12.0347ZM50.2078 13.4857C50.0058 14.2927 49.2858 14.7887 48.2568 14.7887C46.9668 14.7887 46.1768 13.9037 46.1768 12.4647C46.1768 11.0257 46.9838 10.1117 48.2528 10.1117C49.5058 10.1117 50.2618 10.9677 50.2618 12.3817V12.6917H47.0818V12.7417C47.1118 13.5307 47.5708 14.0317 48.2808 14.0317C48.8198 14.0317 49.1878 13.8377 49.3528 13.4857H50.2078Z" fill="#FFFFFE"/>
<path fill-rule="evenodd" clip-rule="evenodd" d="M54.4032 11.6703C54.2992 11.2323 53.9352 10.9053 53.3402 10.9053C52.5952 10.9053 52.1402 11.4763 52.1402 12.4353C52.1402 13.4113 52.5992 13.9943 53.3402 13.9943C53.9022 13.9943 54.2872 13.7383 54.4032 13.2543H55.2672C55.1512 14.1603 54.4572 14.7883 53.3442 14.7883C52.0332 14.7883 51.2312 13.9033 51.2312 12.4353C51.2312 10.9923 52.0292 10.1113 53.3402 10.1113C54.4682 10.1113 55.1512 10.7693 55.2672 11.6703H54.4032Z" fill="#FFFFFE"/>
<path fill-rule="evenodd" clip-rule="evenodd" d="M56.4473 8.44092H57.3283V10.9219H57.3983C57.6173 10.4179 58.0933 10.1159 58.7713 10.1159C59.7303 10.1159 60.3223 10.7239 60.3223 11.7949V14.7019H59.4323V12.0139C59.4323 11.2949 59.0973 10.9299 58.4693 10.9299C57.7413 10.9299 57.3363 11.3899 57.3363 12.0719V14.7019H56.4473V8.44092Z" fill="#FFFFFE"/>
<path fill-rule="evenodd" clip-rule="evenodd" d="M64.334 13.0436V12.6676L63.234 12.7376C62.614 12.7786 62.333 12.9896 62.333 13.3866C62.333 13.7926 62.685 14.0276 63.168 14.0276C63.838 14.0276 64.334 13.6016 64.334 13.0436ZM61.439 13.4286C61.439 12.6176 62.043 12.1506 63.114 12.0846L64.334 12.0136V11.6256C64.334 11.1496 64.02 10.8806 63.412 10.8806C62.916 10.8806 62.572 11.0636 62.474 11.3816H61.613C61.704 10.6076 62.432 10.1116 63.453 10.1116C64.582 10.1116 65.218 10.6736 65.218 11.6256V14.7016H64.363V14.0686H64.293C64.024 14.5196 63.532 14.7756 62.94 14.7756C62.072 14.7756 61.439 14.2516 61.439 13.4286Z" fill="#FFFFFE"/>
<path fill-rule="evenodd" clip-rule="evenodd" d="M66.6099 10.1988H67.4649V10.8888H67.5319C67.6599 10.4468 68.1599 10.1238 68.7479 10.1238C68.8799 10.1238 69.0489 10.1368 69.1439 10.1608V11.0378C69.0699 11.0128 68.8049 10.9848 68.6479 10.9848C67.9739 10.9848 67.4989 11.4098 67.4989 12.0428V14.7018H66.6099V10.1988Z" fill="#FFFFFE"/>
<path fill-rule="evenodd" clip-rule="evenodd" d="M73.1167 12.394C73.1167 11.497 72.6527 10.922 71.8957 10.922C71.1317 10.922 70.7017 11.497 70.7017 12.394C70.7017 13.291 71.1317 13.866 71.8957 13.866C72.6577 13.866 73.1167 13.296 73.1167 12.394ZM69.9617 15.152H70.8707C70.9457 15.479 71.3217 15.69 71.9217 15.69C72.6617 15.69 73.0997 15.338 73.0997 14.743V13.879H73.0337C72.7607 14.367 72.2637 14.635 71.6437 14.635C70.4947 14.635 69.7837 13.747 69.7837 12.398C69.7837 11.025 70.5027 10.124 71.6527 10.124C72.2727 10.124 72.8137 10.43 73.0667 10.918H73.1377V10.199H73.9887V14.739C73.9887 15.769 73.1817 16.422 71.9087 16.422C70.7837 16.422 70.0557 15.917 69.9617 15.152Z" fill="#FFFFFE"/>
<path fill-rule="evenodd" clip-rule="evenodd" d="M76.0864 12.0348H78.3604C78.3404 11.3278 77.9104 10.8678 77.2524 10.8678C76.5954 10.8678 76.1364 11.3318 76.0864 12.0348ZM79.2124 13.4858C79.0104 14.2928 78.2904 14.7888 77.2614 14.7888C75.9714 14.7888 75.1814 13.9038 75.1814 12.4648C75.1814 11.0258 75.9874 10.1118 77.2574 10.1118C78.5104 10.1118 79.2664 10.9678 79.2664 12.3818V12.6918H76.0864V12.7418C76.1154 13.5318 76.5744 14.0318 77.2854 14.0318C77.8234 14.0318 78.1914 13.8378 78.3574 13.4858H79.2124Z" fill="#FFFFFE"/>
<path fill-rule="evenodd" clip-rule="evenodd" d="M80.4595 10.1988H81.3145V10.8888H81.3815C81.5095 10.4468 82.0095 10.1238 82.5975 10.1238C82.7295 10.1238 82.8985 10.1368 82.9935 10.1608V11.0378C82.9195 11.0128 82.6545 10.9848 82.4975 10.9848C81.8235 10.9848 81.3485 11.4098 81.3485 12.0428V14.7018H80.4595V10.1988Z" fill="#FFFFFE"/>
<path fill-rule="evenodd" clip-rule="evenodd" d="M87.1138 12.4482C87.1138 13.4032 87.5638 13.9782 88.3168 13.9782C89.0658 13.9782 89.5288 13.3952 89.5288 12.4522C89.5288 11.5132 89.0608 10.9222 88.3168 10.9222C87.5688 10.9222 87.1138 11.5012 87.1138 12.4482ZM86.1958 12.4482C86.1958 11.0252 86.9268 10.1242 88.0648 10.1242C88.6808 10.1242 89.2018 10.4172 89.4458 10.9142H89.5118V8.44116H90.4008V14.7012H89.5498V13.9902H89.4788C89.2108 14.4822 88.6848 14.7762 88.0648 14.7762C86.9198 14.7762 86.1958 13.8742 86.1958 12.4482Z" fill="#FFFFFE"/>
<path fill-rule="evenodd" clip-rule="evenodd" d="M94.4966 13.0436V12.6676L93.3966 12.7376C92.7766 12.7786 92.4956 12.9896 92.4956 13.3866C92.4956 13.7926 92.8476 14.0276 93.3306 14.0276C94.0006 14.0276 94.4966 13.6016 94.4966 13.0436ZM91.6016 13.4286C91.6016 12.6176 92.2056 12.1506 93.2766 12.0846L94.4966 12.0136V11.6256C94.4966 11.1496 94.1826 10.8806 93.5746 10.8806C93.0786 10.8806 92.7346 11.0636 92.6366 11.3816H91.7756C91.8666 10.6076 92.5946 10.1116 93.6156 10.1116C94.7446 10.1116 95.3816 10.6736 95.3816 11.6256V14.7016H94.5256V14.0686H94.4556C94.1866 14.5196 93.6946 14.7756 93.1026 14.7756C92.2346 14.7756 91.6016 14.2516 91.6016 13.4286Z" fill="#FFFFFE"/>
<path fill-rule="evenodd" clip-rule="evenodd" d="M96.7729 10.1988H97.6279V10.9138H97.6949C97.9139 10.4138 98.3609 10.1118 99.0389 10.1118C100.044 10.1118 100.597 10.7158 100.597 11.7868V14.7018H99.7089V12.0098C99.7089 11.2858 99.3939 10.9268 98.7369 10.9268C98.0799 10.9268 97.6619 11.3648 97.6619 12.0678V14.7018H96.7729V10.1988Z" fill="#FFFFFE"/>
<path fill-rule="evenodd" clip-rule="evenodd" d="M103.618 10.1118C104.631 10.1118 105.293 10.5828 105.38 11.3768H104.527C104.445 11.0468 104.122 10.8358 103.618 10.8358C103.122 10.8358 102.745 11.0708 102.745 11.4228C102.745 11.6918 102.972 11.8608 103.461 11.9728L104.209 12.1458C105.065 12.3448 105.467 12.7128 105.467 13.3748C105.467 14.2218 104.677 14.7888 103.601 14.7888C102.53 14.7888 101.832 14.3048 101.753 13.5068H102.642C102.754 13.8538 103.085 14.0688 103.622 14.0688C104.176 14.0688 104.569 13.8208 104.569 13.4608C104.569 13.1928 104.358 13.0188 103.907 12.9108L103.122 12.7288C102.265 12.5268 101.869 12.1418 101.869 11.4718C101.869 10.6738 102.6 10.1118 103.618 10.1118Z" fill="#FFFFFE"/>
<path fill-rule="evenodd" clip-rule="evenodd" d="M35.198 30.4849H37.057V18.0669H35.198V30.4849Z" fill="#FFFFFE"/>
<path fill-rule="evenodd" clip-rule="evenodd" d="M39.2979 22.6109L40.3139 18.0669H42.1199L40.8899 22.6109H39.2979Z" fill="#FFFFFE"/>
<path fill-rule="evenodd" clip-rule="evenodd" d="M44.9025 25.5801H48.6545L46.8045 20.1321H46.7535L44.9025 25.5801ZM49.1455 27.1291H44.4125L43.2755 30.4851H41.2705L45.7545 18.0671H47.8375L52.3205 30.4851H50.2815L49.1455 27.1291Z" fill="#FFFFFE"/>
<path fill-rule="evenodd" clip-rule="evenodd" d="M60.0929 25.9589C60.0929 24.1259 59.1459 22.9199 57.6999 22.9199C56.2799 22.9199 55.3249 24.1509 55.3249 25.9589C55.3249 27.7829 56.2799 29.0049 57.6999 29.0049C59.1459 29.0049 60.0929 27.8089 60.0929 25.9589ZM62.0029 25.9589C62.0029 28.7719 60.4969 30.5799 58.2249 30.5799C56.9349 30.5799 55.9099 30.0029 55.3759 28.9959H55.3329V33.4799H53.4749V21.4309H55.2739V22.9369H55.3079C55.8239 21.9649 56.9259 21.3359 58.1909 21.3359C60.4889 21.3359 62.0029 23.1529 62.0029 25.9589Z" fill="#FFFFFE"/>
<path fill-rule="evenodd" clip-rule="evenodd" d="M70.0572 25.9589C70.0572 24.1259 69.1102 22.9199 67.6642 22.9199C66.2442 22.9199 65.2892 24.1509 65.2892 25.9589C65.2892 27.7829 66.2442 29.0049 67.6642 29.0049C69.1102 29.0049 70.0572 27.8089 70.0572 25.9589ZM71.9672 25.9589C71.9672 28.7719 70.4612 30.5799 68.1892 30.5799C66.8992 30.5799 65.8742 30.0029 65.3402 28.9959H65.2972V33.4799H63.4392V21.4309H65.2382V22.9369H65.2722C65.7882 21.9649 66.8902 21.3359 68.1552 21.3359C70.4532 21.3359 71.9672 23.1529 71.9672 25.9589Z" fill="#FFFFFE"/>
<path fill-rule="evenodd" clip-rule="evenodd" d="M78.5531 27.0254C78.6911 28.2564 79.8871 29.0654 81.5221 29.0654C83.0881 29.0654 84.2151 28.2564 84.2151 27.1464C84.2151 26.1824 83.5351 25.6054 81.9261 25.2104L80.3171 24.8214C78.0361 24.2714 76.9781 23.2044 76.9781 21.4744C76.9781 19.3314 78.8451 17.8594 81.4961 17.8594C84.1201 17.8594 85.9191 19.3314 85.9801 21.4744H84.1041C83.9911 20.2344 82.9671 19.4864 81.4701 19.4864C79.9731 19.4864 78.9491 20.2434 78.9491 21.3454C78.9491 22.2234 79.6031 22.7394 81.2031 23.1354L82.5721 23.4714C85.1191 24.0734 86.1781 25.0974 86.1781 26.9144C86.1781 29.2374 84.3271 30.6924 81.3841 30.6924C78.6301 30.6924 76.7711 29.2714 76.6511 27.0254H78.5531Z" fill="#FFFFFE"/>
<path fill-rule="evenodd" clip-rule="evenodd" d="M90.1889 19.2886V21.4316H91.9109V22.9026H90.1889V27.8946C90.1889 28.6696 90.5339 29.0316 91.2909 29.0316C91.4799 29.0316 91.7819 29.0046 91.9019 28.9886V30.4516C91.6959 30.5026 91.2829 30.5376 90.8699 30.5376C89.0369 30.5376 88.3219 29.8486 88.3219 28.0926V22.9026H87.0049V21.4316H88.3219V19.2886H90.1889Z" fill="#FFFFFE"/>
<path fill-rule="evenodd" clip-rule="evenodd" d="M99.602 25.9591C99.602 24.0041 98.706 22.8511 97.201 22.8511C95.695 22.8511 94.799 24.0131 94.799 25.9591C94.799 27.9211 95.695 29.0651 97.201 29.0651C98.706 29.0651 99.602 27.9211 99.602 25.9591ZM92.907 25.9591C92.907 23.1101 94.584 21.3201 97.201 21.3201C99.826 21.3201 101.496 23.1101 101.496 25.9591C101.496 28.8151 99.834 30.5981 97.201 30.5981C94.568 30.5981 92.907 28.8151 92.907 25.9591Z" fill="#FFFFFE"/>
<path fill-rule="evenodd" clip-rule="evenodd" d="M103.028 21.4312H104.8V22.9722H104.843C105.128 21.9482 105.954 21.3362 107.021 21.3362C107.288 21.3362 107.511 21.3712 107.658 21.4062V23.1442C107.511 23.0832 107.184 23.0322 106.823 23.0322C105.627 23.0322 104.886 23.8412 104.886 25.1152V30.4852H103.028V21.4312Z" fill="#FFFFFE"/>
<path fill-rule="evenodd" clip-rule="evenodd" d="M109.944 25.1241H114.47C114.427 23.7381 113.541 22.8261 112.25 22.8261C110.967 22.8261 110.039 23.7551 109.944 25.1241ZM116.226 27.8261C115.976 29.4701 114.376 30.5981 112.328 30.5981C109.694 30.5981 108.059 28.8331 108.059 26.0021C108.059 23.1621 109.703 21.3201 112.25 21.3201C114.755 21.3201 116.33 23.0411 116.33 25.7861V26.4231H109.935V26.5351C109.935 28.0841 110.908 29.1001 112.371 29.1001C113.403 29.1001 114.213 28.6091 114.462 27.8261H116.226Z" fill="#FFFFFE"/>
</g>
</svg>
