<svg width="127" height="40" viewBox="0 0 127 40" fill="none" xmlns="http://www.w3.org/2000/svg">
<g clip-path="url(#clip0_11241_55342)">
<path fill-rule="evenodd" clip-rule="evenodd" d="M116.978 0H9.535C9.168 0 8.806 0 8.44 0.002C8.134 0.004 7.83 0.01 7.521 0.015C6.855 0.031 6.182 0.072 5.517 0.191C4.848 0.309 4.226 0.509 3.616 0.818C3.018 1.125 2.471 1.523 1.998 1.997C1.519 2.471 1.123 3.02 0.819 3.618C0.508 4.227 0.311 4.852 0.194 5.521C0.074 6.184 0.032 6.854 0.015 7.523C0.006 7.83 0.005 8.138 0 8.444V9.536V30.465V31.559C0.005 31.869 0.006 32.17 0.015 32.48C0.032 33.15 0.074 33.82 0.194 34.482C0.311 35.152 0.508 35.78 0.819 36.387C1.123 36.982 1.519 37.531 1.998 38.001C2.471 38.479 3.018 38.876 3.616 39.18C4.226 39.492 4.848 39.689 5.517 39.811C6.182 39.93 6.855 39.969 7.521 39.987C7.83 39.994 8.134 39.998 8.44 39.998C8.806 40 9.168 40 9.535 40H116.978C117.337 40 117.703 40 118.062 39.998C118.367 39.998 118.679 39.994 118.984 39.987C119.654 39.969 120.326 39.93 120.984 39.811C121.654 39.689 122.277 39.492 122.892 39.18C123.49 38.876 124.037 38.479 124.509 38.001C124.986 37.531 125.382 36.982 125.691 36.387C125.998 35.78 126.197 35.152 126.31 34.482C126.433 33.82 126.472 33.15 126.496 32.48C126.499 32.17 126.499 31.869 126.499 31.559C126.507 31.195 126.507 30.834 126.507 30.465V9.536C126.507 9.17 126.507 8.807 126.499 8.444C126.499 8.138 126.499 7.83 126.496 7.523C126.472 6.854 126.433 6.184 126.31 5.521C126.197 4.852 125.998 4.227 125.691 3.618C125.382 3.02 124.986 2.471 124.509 1.997C124.037 1.523 123.49 1.125 122.892 0.818C122.277 0.509 121.654 0.309 120.984 0.191C120.326 0.072 119.654 0.031 118.984 0.015C118.679 0.01 118.367 0.004 118.062 0.002C117.703 0 117.337 0 116.978 0Z" fill="white"/>
<path fill-rule="evenodd" clip-rule="evenodd" d="M8.44505 39.125C8.14005 39.125 7.84305 39.121 7.54105 39.114C6.98205 39.099 6.31905 39.067 5.67205 38.951C5.06105 38.841 4.51905 38.661 4.01505 38.403C3.49305 38.139 3.02505 37.797 2.61805 37.387C2.20405 36.98 1.86305 36.514 1.59705 35.99C1.33805 35.485 1.16105 34.943 1.05405 34.333C0.932047 33.66 0.901047 32.978 0.888047 32.458C0.882047 32.247 0.873047 31.545 0.873047 31.545V8.444C0.873047 8.444 0.882047 7.753 0.888047 7.55C0.901047 7.026 0.932047 6.344 1.05305 5.678C1.16005 5.064 1.33805 4.522 1.59705 4.016C1.86205 3.491 2.20305 3.022 2.61205 2.618C3.02605 2.204 3.49605 1.861 4.01405 1.595C4.52805 1.334 5.07005 1.156 5.66805 1.051C6.34105 0.931 7.02405 0.9 7.54305 0.887L8.44505 0.875H118.057L118.97 0.888C119.483 0.9 120.166 0.931 120.829 1.05C121.431 1.156 121.976 1.335 122.5 1.598C123.012 1.861 123.482 2.204 123.891 2.614C124.3 3.02 124.643 3.492 124.915 4.018C125.173 4.529 125.348 5.071 125.45 5.667C125.566 6.298 125.602 6.946 125.624 7.554C125.627 7.837 125.627 8.142 125.627 8.444C125.634 8.819 125.634 9.176 125.634 9.536V30.465C125.634 30.828 125.634 31.183 125.627 31.54C125.627 31.865 125.627 32.163 125.623 32.47C125.602 33.059 125.566 33.706 125.452 34.323C125.348 34.937 125.173 35.479 124.912 35.993C124.642 36.513 124.299 36.982 123.896 37.379C123.483 37.797 123.014 38.138 122.497 38.401C121.978 38.665 121.449 38.84 120.829 38.951C120.188 39.067 119.525 39.099 118.96 39.114C118.667 39.121 118.36 39.125 118.062 39.125L116.978 39.127L8.44505 39.125Z" fill="#0A0A05"/>
<path fill-rule="evenodd" clip-rule="evenodd" d="M24.7721 20.3005C24.7471 17.5495 27.0241 16.2115 27.1281 16.1485C25.8391 14.2675 23.8391 14.0105 23.1371 13.9905C21.4581 13.8145 19.8301 14.9955 18.9741 14.9955C18.1021 14.9955 16.7851 14.0085 15.3661 14.0375C13.5401 14.0655 11.8301 15.1235 10.8931 16.7655C8.95914 20.1135 10.4011 25.0345 12.2541 27.7405C13.1811 29.0675 14.2641 30.5475 15.6821 30.4945C17.0691 30.4375 17.5871 29.6105 19.2611 29.6105C20.9201 29.6105 21.4061 30.4945 22.8521 30.4615C24.3401 30.4375 25.2781 29.1295 26.1721 27.7915C27.2441 26.2725 27.6741 24.7765 27.6911 24.6995C27.6561 24.6875 24.8001 23.5985 24.7721 20.3005Z" fill="#FFFFFE"/>
<path fill-rule="evenodd" clip-rule="evenodd" d="M22.0397 12.2107C22.7857 11.2777 23.2957 10.0087 23.1547 8.71973C22.0747 8.76773 20.7247 9.46673 19.9467 10.3797C19.2587 11.1837 18.6437 12.5027 18.8027 13.7407C20.0157 13.8317 21.2617 13.1287 22.0397 12.2107Z" fill="#FFFFFE"/>
<path fill-rule="evenodd" clip-rule="evenodd" d="M35.6553 14.7014V9.57737H33.7783V8.73438H38.4553V9.57737H36.5823V14.7014H35.6553Z" fill="#FFFFFE"/>
<path fill-rule="evenodd" clip-rule="evenodd" d="M40.2754 9.44544L41.3134 8.02344H42.3554L41.1934 9.44544H40.2754ZM39.6384 12.0344H41.9134C41.8924 11.3274 41.4624 10.8674 40.8044 10.8674C40.1474 10.8674 39.6884 11.3314 39.6384 12.0344ZM42.7644 13.4854C42.5624 14.2924 41.8424 14.7884 40.8134 14.7884C39.5234 14.7884 38.7334 13.9034 38.7334 12.4644C38.7334 11.0254 39.5404 10.1114 40.8094 10.1114C42.0624 10.1114 42.8184 10.9674 42.8184 12.3814V12.6914H39.6384V12.7414C39.6684 13.5304 40.1274 14.0314 40.8374 14.0314C41.3764 14.0314 41.7444 13.8374 41.9094 13.4854H42.7644Z" fill="#FFFFFE"/>
<mask id="mask0_11241_55342" style="mask-type:alpha" maskUnits="userSpaceOnUse" x="0" y="0" width="127" height="40">
<path d="M0 40H126.508V0H0V40Z" fill="white"/>
</mask>
<g mask="url(#mask0_11241_55342)">
<path fill-rule="evenodd" clip-rule="evenodd" d="M44.0527 14.7024H44.9417V8.44141H44.0527V14.7024Z" fill="#FFFFFE"/>
<path fill-rule="evenodd" clip-rule="evenodd" d="M47.7188 9.44544L48.7568 8.02344H49.7988L48.6368 9.44544H47.7188ZM47.0818 12.0344H49.3568C49.3358 11.3274 48.9058 10.8674 48.2478 10.8674C47.5908 10.8674 47.1318 11.3314 47.0818 12.0344ZM50.2078 13.4854C50.0058 14.2924 49.2858 14.7884 48.2568 14.7884C46.9668 14.7884 46.1768 13.9034 46.1768 12.4644C46.1768 11.0254 46.9838 10.1114 48.2528 10.1114C49.5058 10.1114 50.2618 10.9674 50.2618 12.3814V12.6914H47.0818V12.7414C47.1118 13.5304 47.5708 14.0314 48.2808 14.0314C48.8198 14.0314 49.1878 13.8374 49.3528 13.4854H50.2078Z" fill="#FFFFFE"/>
<path fill-rule="evenodd" clip-rule="evenodd" d="M54.4034 11.6703C54.2994 11.2323 53.9354 10.9053 53.3404 10.9053C52.5954 10.9053 52.1404 11.4763 52.1404 12.4353C52.1404 13.4113 52.5994 13.9943 53.3404 13.9943C53.9024 13.9943 54.2874 13.7383 54.4034 13.2543H55.2674C55.1514 14.1603 54.4574 14.7883 53.3444 14.7883C52.0334 14.7883 51.2314 13.9033 51.2314 12.4353C51.2314 10.9923 52.0294 10.1113 53.3404 10.1113C54.4684 10.1113 55.1514 10.7693 55.2674 11.6703H54.4034Z" fill="#FFFFFE"/>
<path fill-rule="evenodd" clip-rule="evenodd" d="M56.4473 8.44043H57.3283V10.9214H57.3983C57.6173 10.4174 58.0933 10.1154 58.7713 10.1154C59.7303 10.1154 60.3223 10.7234 60.3223 11.7944V14.7014H59.4323V12.0134C59.4323 11.2944 59.0973 10.9294 58.4693 10.9294C57.7413 10.9294 57.3363 11.3894 57.3363 12.0714V14.7014H56.4473V8.44043Z" fill="#FFFFFE"/>
<path fill-rule="evenodd" clip-rule="evenodd" d="M64.3345 13.0433V12.6673L63.2345 12.7373C62.6145 12.7783 62.3335 12.9893 62.3335 13.3863C62.3335 13.7923 62.6855 14.0273 63.1685 14.0273C63.8385 14.0273 64.3345 13.6013 64.3345 13.0433ZM61.4395 13.4283C61.4395 12.6173 62.0435 12.1503 63.1145 12.0843L64.3345 12.0133V11.6253C64.3345 11.1493 64.0205 10.8803 63.4125 10.8803C62.9165 10.8803 62.5725 11.0633 62.4745 11.3813H61.6135C61.7045 10.6073 62.4325 10.1113 63.4535 10.1113C64.5825 10.1113 65.2185 10.6733 65.2185 11.6253V14.7013H64.3635V14.0683H64.2935C64.0245 14.5193 63.5325 14.7753 62.9405 14.7753C62.0725 14.7753 61.4395 14.2513 61.4395 13.4283Z" fill="#FFFFFE"/>
<path fill-rule="evenodd" clip-rule="evenodd" d="M66.6104 10.199H67.4653V10.889H67.5323C67.6603 10.447 68.1604 10.124 68.7484 10.124C68.8804 10.124 69.0493 10.137 69.1443 10.161V11.038C69.0703 11.013 68.8054 10.985 68.6484 10.985C67.9744 10.985 67.4994 11.41 67.4994 12.043V14.702H66.6104V10.199Z" fill="#FFFFFE"/>
<path fill-rule="evenodd" clip-rule="evenodd" d="M73.1172 12.394C73.1172 11.497 72.6532 10.922 71.8962 10.922C71.1322 10.922 70.7022 11.497 70.7022 12.394C70.7022 13.291 71.1322 13.866 71.8962 13.866C72.6582 13.866 73.1172 13.296 73.1172 12.394ZM69.9622 15.152H70.8712C70.9462 15.479 71.3222 15.69 71.9222 15.69C72.6622 15.69 73.1002 15.338 73.1002 14.743V13.879H73.0342C72.7612 14.367 72.2642 14.635 71.6442 14.635C70.4952 14.635 69.7842 13.747 69.7842 12.398C69.7842 11.025 70.5032 10.124 71.6532 10.124C72.2732 10.124 72.8142 10.43 73.0672 10.918H73.1382V10.199H73.9892V14.739C73.9892 15.769 73.1822 16.422 71.9092 16.422C70.7842 16.422 70.0562 15.917 69.9622 15.152Z" fill="#FFFFFE"/>
<path fill-rule="evenodd" clip-rule="evenodd" d="M76.0866 12.0343H78.3606C78.3406 11.3273 77.9106 10.8673 77.2526 10.8673C76.5956 10.8673 76.1366 11.3313 76.0866 12.0343ZM79.2126 13.4853C79.0106 14.2923 78.2906 14.7883 77.2616 14.7883C75.9716 14.7883 75.1816 13.9033 75.1816 12.4643C75.1816 11.0253 75.9876 10.1113 77.2576 10.1113C78.5106 10.1113 79.2666 10.9673 79.2666 12.3813V12.6913H76.0866V12.7413C76.1156 13.5313 76.5746 14.0313 77.2856 14.0313C77.8236 14.0313 78.1916 13.8373 78.3576 13.4853H79.2126Z" fill="#FFFFFE"/>
<path fill-rule="evenodd" clip-rule="evenodd" d="M80.46 10.199H81.315V10.889H81.382C81.51 10.447 82.01 10.124 82.598 10.124C82.73 10.124 82.899 10.137 82.994 10.161V11.038C82.92 11.013 82.655 10.985 82.498 10.985C81.824 10.985 81.349 11.41 81.349 12.043V14.702H80.46V10.199Z" fill="#FFFFFE"/>
<path fill-rule="evenodd" clip-rule="evenodd" d="M87.1133 12.4484C87.1133 13.4034 87.5633 13.9784 88.3163 13.9784C89.0653 13.9784 89.5283 13.3954 89.5283 12.4524C89.5283 11.5134 89.0603 10.9224 88.3163 10.9224C87.5683 10.9224 87.1133 11.5014 87.1133 12.4484ZM86.1953 12.4484C86.1953 11.0254 86.9263 10.1244 88.0643 10.1244C88.6803 10.1244 89.2013 10.4174 89.4453 10.9144H89.5113V8.44141H90.4003V14.7014H89.5493V13.9904H89.4783C89.2103 14.4824 88.6843 14.7764 88.0643 14.7764C86.9193 14.7764 86.1953 13.8744 86.1953 12.4484Z" fill="#FFFFFE"/>
<path fill-rule="evenodd" clip-rule="evenodd" d="M94.4966 13.0433V12.6673L93.3966 12.7373C92.7766 12.7783 92.4956 12.9893 92.4956 13.3863C92.4956 13.7923 92.8476 14.0273 93.3306 14.0273C94.0006 14.0273 94.4966 13.6013 94.4966 13.0433ZM91.6016 13.4283C91.6016 12.6173 92.2056 12.1503 93.2766 12.0843L94.4966 12.0133V11.6253C94.4966 11.1493 94.1826 10.8803 93.5746 10.8803C93.0786 10.8803 92.7346 11.0633 92.6366 11.3813H91.7756C91.8666 10.6073 92.5946 10.1113 93.6156 10.1113C94.7446 10.1113 95.3816 10.6733 95.3816 11.6253V14.7013H94.5256V14.0683H94.4556C94.1866 14.5193 93.6946 14.7753 93.1026 14.7753C92.2346 14.7753 91.6016 14.2513 91.6016 13.4283Z" fill="#FFFFFE"/>
<path fill-rule="evenodd" clip-rule="evenodd" d="M96.7734 10.1983H97.6284V10.9133H97.6954C97.9144 10.4133 98.3614 10.1113 99.0394 10.1113C100.044 10.1113 100.597 10.7153 100.597 11.7863V14.7013H99.7094V12.0093C99.7094 11.2853 99.3944 10.9263 98.7374 10.9263C98.0804 10.9263 97.6624 11.3643 97.6624 12.0673V14.7013H96.7734V10.1983Z" fill="#FFFFFE"/>
<path fill-rule="evenodd" clip-rule="evenodd" d="M103.618 10.1113C104.631 10.1113 105.293 10.5823 105.38 11.3763H104.527C104.445 11.0463 104.122 10.8353 103.618 10.8353C103.122 10.8353 102.745 11.0703 102.745 11.4223C102.745 11.6913 102.972 11.8603 103.461 11.9723L104.209 12.1453C105.065 12.3443 105.467 12.7123 105.467 13.3743C105.467 14.2213 104.677 14.7883 103.601 14.7883C102.53 14.7883 101.832 14.3043 101.753 13.5063H102.642C102.754 13.8533 103.085 14.0683 103.622 14.0683C104.176 14.0683 104.569 13.8203 104.569 13.4603C104.569 13.1923 104.358 13.0183 103.907 12.9103L103.122 12.7283C102.265 12.5263 101.869 12.1413 101.869 11.4713C101.869 10.6733 102.6 10.1113 103.618 10.1113Z" fill="#FFFFFE"/>
<path fill-rule="evenodd" clip-rule="evenodd" d="M35.1982 30.4854H37.0572V18.0674H35.1982V30.4854Z" fill="#FFFFFE"/>
<path fill-rule="evenodd" clip-rule="evenodd" d="M39.2979 22.6104L40.3139 18.0664H42.1199L40.8899 22.6104H39.2979Z" fill="#FFFFFE"/>
<path fill-rule="evenodd" clip-rule="evenodd" d="M44.9025 25.5804H48.6545L46.8045 20.1324H46.7535L44.9025 25.5804ZM49.1455 27.1294H44.4125L43.2755 30.4854H41.2705L45.7545 18.0674H47.8375L52.3205 30.4854H50.2815L49.1455 27.1294Z" fill="#FFFFFE"/>
<path fill-rule="evenodd" clip-rule="evenodd" d="M60.0926 25.9589C60.0926 24.1259 59.1456 22.9199 57.6996 22.9199C56.2796 22.9199 55.3246 24.1509 55.3246 25.9589C55.3246 27.7829 56.2796 29.0049 57.6996 29.0049C59.1456 29.0049 60.0926 27.8089 60.0926 25.9589ZM62.0026 25.9589C62.0026 28.7719 60.4966 30.5799 58.2246 30.5799C56.9346 30.5799 55.9096 30.0029 55.3756 28.9959H55.3326V33.4799H53.4746V21.4309H55.2736V22.9369H55.3076C55.8236 21.9649 56.9256 21.3359 58.1906 21.3359C60.4886 21.3359 62.0026 23.1529 62.0026 25.9589Z" fill="#FFFFFE"/>
<path fill-rule="evenodd" clip-rule="evenodd" d="M70.0575 25.9589C70.0575 24.1259 69.1105 22.9199 67.6645 22.9199C66.2445 22.9199 65.2895 24.1509 65.2895 25.9589C65.2895 27.7829 66.2445 29.0049 67.6645 29.0049C69.1105 29.0049 70.0575 27.8089 70.0575 25.9589ZM71.9675 25.9589C71.9675 28.7719 70.4615 30.5799 68.1895 30.5799C66.8995 30.5799 65.8745 30.0029 65.3405 28.9959H65.2975V33.4799H63.4395V21.4309H65.2385V22.9369H65.2725C65.7885 21.9649 66.8905 21.3359 68.1555 21.3359C70.4535 21.3359 71.9675 23.1529 71.9675 25.9589Z" fill="#FFFFFE"/>
<path fill-rule="evenodd" clip-rule="evenodd" d="M78.5534 27.0254C78.6914 28.2564 79.8874 29.0654 81.5224 29.0654C83.0884 29.0654 84.2154 28.2564 84.2154 27.1464C84.2154 26.1824 83.5354 25.6054 81.9264 25.2104L80.3174 24.8214C78.0364 24.2714 76.9784 23.2044 76.9784 21.4744C76.9784 19.3314 78.8454 17.8594 81.4964 17.8594C84.1204 17.8594 85.9194 19.3314 85.9804 21.4744H84.1044C83.9914 20.2344 82.9674 19.4864 81.4704 19.4864C79.9734 19.4864 78.9494 20.2434 78.9494 21.3454C78.9494 22.2234 79.6034 22.7394 81.2034 23.1354L82.5724 23.4714C85.1194 24.0734 86.1784 25.0974 86.1784 26.9144C86.1784 29.2374 84.3274 30.6924 81.3844 30.6924C78.6304 30.6924 76.7714 29.2714 76.6514 27.0254H78.5534Z" fill="#FFFFFE"/>
<path fill-rule="evenodd" clip-rule="evenodd" d="M90.1889 19.2891V21.4321H91.9109V22.9031H90.1889V27.8951C90.1889 28.6701 90.5339 29.0321 91.2909 29.0321C91.4799 29.0321 91.7819 29.0051 91.9019 28.9891V30.4521C91.6959 30.5031 91.2829 30.5381 90.8699 30.5381C89.0369 30.5381 88.3219 29.8491 88.3219 28.0931V22.9031H87.0049V21.4321H88.3219V19.2891H90.1889Z" fill="#FFFFFE"/>
<path fill-rule="evenodd" clip-rule="evenodd" d="M99.6022 25.9593C99.6022 24.0043 98.7062 22.8513 97.2012 22.8513C95.6952 22.8513 94.7992 24.0133 94.7992 25.9593C94.7992 27.9213 95.6952 29.0653 97.2012 29.0653C98.7062 29.0653 99.6022 27.9213 99.6022 25.9593ZM92.9072 25.9593C92.9072 23.1103 94.5842 21.3203 97.2012 21.3203C99.8262 21.3203 101.496 23.1103 101.496 25.9593C101.496 28.8153 99.8342 30.5983 97.2012 30.5983C94.5682 30.5983 92.9072 28.8153 92.9072 25.9593Z" fill="#FFFFFE"/>
<path fill-rule="evenodd" clip-rule="evenodd" d="M103.027 21.4309H104.799V22.9719H104.842C105.127 21.9479 105.953 21.3359 107.02 21.3359C107.287 21.3359 107.51 21.3709 107.657 21.4059V23.1439C107.51 23.0829 107.183 23.0319 106.822 23.0319C105.626 23.0319 104.885 23.8409 104.885 25.1149V30.4849H103.027V21.4309Z" fill="#FFFFFE"/>
<path fill-rule="evenodd" clip-rule="evenodd" d="M109.944 25.1243H114.47C114.427 23.7383 113.541 22.8263 112.25 22.8263C110.967 22.8263 110.039 23.7553 109.944 25.1243ZM116.226 27.8263C115.976 29.4703 114.376 30.5983 112.328 30.5983C109.694 30.5983 108.059 28.8333 108.059 26.0023C108.059 23.1623 109.703 21.3203 112.25 21.3203C114.755 21.3203 116.33 23.0413 116.33 25.7863V26.4233H109.935V26.5353C109.935 28.0843 110.908 29.1003 112.371 29.1003C113.403 29.1003 114.213 28.6093 114.462 27.8263H116.226Z" fill="#FFFFFE"/>
</g>
</g>
<defs>
<clipPath id="clip0_11241_55342">
<rect width="127" height="40" fill="white"/>
</clipPath>
</defs>
</svg>
