<svg width="96" height="90" viewBox="0 0 96 90" fill="none" xmlns="http://www.w3.org/2000/svg">
<path d="M96 57.8414C88.2797 76.5771 69.8182 90 48.3355 90C26.1818 90 7.04895 75.9075 0 56.5023C12.0839 64.1974 28.8671 69.5506 41.958 69.5506C58.4056 69.5506 64.7832 65.2012 76.8671 56.5028C82.5734 52.4871 90.965 53.1569 96 57.8414Z" fill="white"/>
<path d="M58.7413 40.1487C58.7413 22.4164 36.2517 0 36.2517 0C32.2238 12.3792 14.0979 22.4164 14.0979 40.1487C14.0979 52.1933 23.8322 61.8959 36.2517 61.8959C48.6713 61.8959 58.7413 52.1933 58.7413 40.1487Z" fill="#6095D6"/>
<path d="M67.9193 37.0622C63.4097 41.5572 64.1217 52.2032 64.1217 52.2032C64.1217 52.2032 74.8025 52.913 79.3121 48.418C82.3977 45.3424 82.3977 40.1377 79.3121 37.0622C76.2266 33.9867 71.0049 33.9867 67.9193 37.0622Z" fill="white"/>
</svg>
