<svg width="135" height="40" viewBox="0 0 135 40" fill="none" xmlns="http://www.w3.org/2000/svg">
<g clip-path="url(#clip0_5628_34796)">
<mask id="mask0_5628_34796" style="mask-type:alpha" maskUnits="userSpaceOnUse" x="0" y="0" width="135" height="40">
<path d="M0 0H134.999V39.9996H0V0Z" fill="white"/>
</mask>
<g mask="url(#mask0_5628_34796)">
<path fill-rule="evenodd" clip-rule="evenodd" d="M129.999 39.9995H5C2.25 39.9995 0 37.7495 0 34.9995V4.99951C0 2.24951 2.25 -0.000488281 5 -0.000488281H129.999C132.749 -0.000488281 134.999 2.24951 134.999 4.99951V34.9995C134.999 37.7495 132.749 39.9995 129.999 39.9995Z" fill="black"/>
</g>
<mask id="mask1_5628_34796" style="mask-type:alpha" maskUnits="userSpaceOnUse" x="0" y="0" width="135" height="40">
<path d="M0 0H134.999V39.9999H0V0Z" fill="white"/>
</mask>
<g mask="url(#mask1_5628_34796)">
<path fill-rule="evenodd" clip-rule="evenodd" d="M129.999 0H5C2.25 0 0 2.25 0 5V35C0 37.75 2.25 40 5 40H129.999C132.749 40 134.999 37.75 134.999 35V5C134.999 2.25 132.749 0 129.999 0ZM129.999 0.8C132.315 0.8 134.199 2.684 134.199 5V35C134.199 37.316 132.315 39.2 129.999 39.2H5C2.684 39.2 0.8 37.316 0.8 35V5C0.8 2.684 2.684 0.8 5 0.8H129.999Z" fill="white"/>
</g>
<mask id="mask2_5628_34796" style="mask-type:alpha" maskUnits="userSpaceOnUse" x="0" y="0" width="135" height="40">
<path d="M0 40H134.999V0H0V40Z" fill="white"/>
</mask>
<g mask="url(#mask2_5628_34796)">
<path fill-rule="evenodd" clip-rule="evenodd" d="M106.935 30.0001H108.801V17.4991H106.935V30.0001ZM123.743 22.0021L121.603 27.4221H121.539L119.32 22.0021H117.309L120.639 29.5771L118.741 33.7911H120.686L125.817 22.0021H123.743ZM113.16 28.5801C112.549 28.5801 111.696 28.2751 111.696 27.5191C111.696 26.5541 112.758 26.1841 113.675 26.1841C114.495 26.1841 114.881 26.3601 115.38 26.6021C115.234 27.7601 114.237 28.5801 113.16 28.5801ZM113.385 21.7291C112.034 21.7291 110.635 22.3241 110.056 23.6431L111.713 24.3341C112.066 23.6431 112.725 23.4171 113.417 23.4171C114.383 23.4171 115.363 23.9961 115.38 25.0251V25.1541C115.042 24.9611 114.318 24.6721 113.434 24.6721C111.648 24.6721 109.831 25.6531 109.831 27.4861C109.831 29.1591 111.294 30.2361 112.934 30.2361C114.189 30.2361 114.881 29.6731 115.315 29.0141H115.38V29.9791H117.181V25.1871C117.181 22.9671 115.524 21.7291 113.385 21.7291ZM101.853 23.5241H99.2V19.2381H101.853C103.249 19.2381 104.041 20.3941 104.041 21.3811C104.041 22.3501 103.249 23.5241 101.853 23.5241ZM101.806 17.4991H97.334V30.0001H99.2V25.2641H101.806C103.874 25.2641 105.906 23.7661 105.906 21.3811C105.906 18.9961 103.874 17.4991 101.806 17.4991ZM77.425 28.5821C76.136 28.5821 75.057 27.5031 75.057 26.0211C75.057 24.5231 76.136 23.4271 77.425 23.4271C78.697 23.4271 79.696 24.5231 79.696 26.0211C79.696 27.5031 78.697 28.5821 77.425 28.5821ZM79.567 22.7021H79.503C79.084 22.2031 78.278 21.7521 77.264 21.7521C75.137 21.7521 73.187 23.6201 73.187 26.0211C73.187 28.4051 75.137 30.2581 77.264 30.2581C78.278 30.2581 79.084 29.8071 79.503 29.2911H79.567V29.9031C79.567 31.5311 78.697 32.4001 77.296 32.4001C76.151 32.4001 75.442 31.5791 75.153 30.8861L73.525 31.5631C73.993 32.6911 75.233 34.0761 77.296 34.0761C79.486 34.0761 81.339 32.7871 81.339 29.6461V22.0091H79.567V22.7021ZM82.628 30.0001H84.497V17.4991H82.628V30.0001ZM87.252 25.8761C87.203 24.2331 88.524 23.3951 89.475 23.3951C90.216 23.3951 90.845 23.7651 91.054 24.2971L87.252 25.8761ZM93.052 24.4581C92.697 23.5071 91.618 21.7521 89.41 21.7521C87.22 21.7521 85.399 23.4751 85.399 26.0051C85.399 28.3891 87.203 30.2581 89.62 30.2581C91.569 30.2581 92.697 29.0661 93.164 28.3731L91.714 27.4061C91.231 28.1151 90.57 28.5821 89.62 28.5821C88.67 28.5821 87.993 28.1481 87.558 27.2941L93.245 24.9421L93.052 24.4581ZM47.744 23.0571V24.8611H52.061C51.932 25.8761 51.594 26.6171 51.078 27.1321C50.45 27.7611 49.467 28.4531 47.744 28.4531C45.085 28.4531 43.007 26.3111 43.007 23.6521C43.007 20.9941 45.085 18.8521 47.744 18.8521C49.177 18.8521 50.225 19.4161 50.998 20.1411L52.27 18.8681C51.191 17.8371 49.757 17.0471 47.744 17.0471C44.102 17.0471 41.041 20.0121 41.041 23.6521C41.041 27.2941 44.102 30.2581 47.744 30.2581C49.709 30.2581 51.191 29.6131 52.351 28.4051C53.543 27.2131 53.914 25.5381 53.914 24.1841C53.914 23.7651 53.882 23.3791 53.817 23.0571H47.744ZM58.822 28.5821C57.533 28.5821 56.422 27.5191 56.422 26.0051C56.422 24.4741 57.533 23.4271 58.822 23.4271C60.111 23.4271 61.223 24.4741 61.223 26.0051C61.223 27.5191 60.111 28.5821 58.822 28.5821ZM58.822 21.7521C56.47 21.7521 54.553 23.5401 54.553 26.0051C54.553 28.4531 56.47 30.2581 58.822 30.2581C61.174 30.2581 63.091 28.4531 63.091 26.0051C63.091 23.5401 61.174 21.7521 58.822 21.7521ZM68.136 28.5821C66.847 28.5821 65.735 27.5191 65.735 26.0051C65.735 24.4741 66.847 23.4271 68.136 23.4271C69.425 23.4271 70.536 24.4741 70.536 26.0051C70.536 27.5191 69.425 28.5821 68.136 28.5821ZM68.136 21.7521C65.783 21.7521 63.866 23.5401 63.866 26.0051C63.866 28.4531 65.783 30.2581 68.136 30.2581C70.487 30.2581 72.405 28.4531 72.405 26.0051C72.405 23.5401 70.487 21.7521 68.136 21.7521Z" fill="white"/>
</g>
<path fill-rule="evenodd" clip-rule="evenodd" d="M10.4359 7.53809C10.1449 7.84609 9.9729 8.32409 9.9729 8.94309V31.0591C9.9729 31.6791 10.1449 32.1561 10.4359 32.4641L10.5089 32.5351L22.8989 20.1471V20.0011V19.8541L10.5089 7.46509L10.4359 7.53809Z" fill="#00D2FF"/>
<path fill-rule="evenodd" clip-rule="evenodd" d="M22.8989 19.8541V20.0011V20.1471L27.0279 24.2791L27.1219 24.2251L32.0149 21.4461C33.4119 20.6511 33.4119 19.3511 32.0149 18.5571L27.1219 15.7771L27.0289 15.7241L22.8989 19.8541Z" fill="#FFE000"/>
<path fill-rule="evenodd" clip-rule="evenodd" d="M10.436 32.464C10.896 32.952 11.657 33.012 12.514 32.525L27.122 24.225L22.899 20.001L10.436 32.464Z" fill="url(#paint0_linear_5628_34796)"/>
<path fill-rule="evenodd" clip-rule="evenodd" d="M10.436 7.53789L22.899 20.0009L27.122 15.7769L12.514 7.47689C12.112 7.24789 11.731 7.13989 11.393 7.13989C11.009 7.13989 10.68 7.27889 10.436 7.53789Z" fill="#00F076"/>
<path fill-rule="evenodd" clip-rule="evenodd" d="M42.0486 12.2628H43.1126C43.8056 12.2628 44.3546 12.0648 44.7596 11.6678C45.1646 11.2708 45.3666 10.7148 45.3666 9.99976C45.3666 9.29076 45.1646 8.73676 44.7596 8.33676C44.3546 7.93776 43.8056 7.73776 43.1126 7.73776H42.0486V12.2628ZM41.2776 12.9998V6.99976H43.1126C44.0346 6.99976 44.7726 7.27776 45.3256 7.83376C45.8786 8.38976 46.1546 9.11176 46.1546 9.99976C46.1546 10.8878 45.8786 11.6108 45.3256 12.1658C44.7726 12.7218 44.0346 12.9998 43.1126 12.9998H41.2776Z" fill="white"/>
<path fill-rule="evenodd" clip-rule="evenodd" d="M42.0486 12.2628H43.1126C43.8056 12.2628 44.3546 12.0648 44.7596 11.6678C45.1646 11.2708 45.3666 10.7148 45.3666 9.99976C45.3666 9.29076 45.1646 8.73676 44.7596 8.33676C44.3546 7.93776 43.8056 7.73776 43.1126 7.73776H42.0486V12.2628ZM41.2776 12.9998V6.99976H43.1126C44.0346 6.99976 44.7726 7.27776 45.3256 7.83376C45.8786 8.38976 46.1546 9.11176 46.1546 9.99976C46.1546 10.8878 45.8786 11.6108 45.3256 12.1658C44.7726 12.7218 44.0346 12.9998 43.1126 12.9998H41.2776Z" stroke="white" stroke-width="0.2"/>
<mask id="mask3_5628_34796" style="mask-type:alpha" maskUnits="userSpaceOnUse" x="0" y="0" width="135" height="40">
<path d="M0 40H134.999V0H0V40Z" fill="white"/>
</mask>
<g mask="url(#mask3_5628_34796)">
<path fill-rule="evenodd" clip-rule="evenodd" d="M47.2371 13H48.0071V7H47.2371V13Z" fill="white"/>
<path fill-rule="evenodd" clip-rule="evenodd" d="M47.2371 13H48.0071V7H47.2371V13Z" stroke="white" stroke-width="0.2"/>
<path fill-rule="evenodd" clip-rule="evenodd" d="M51.0735 13.134C50.6385 13.134 50.2125 12.992 49.7965 12.707C49.3795 12.422 49.1065 12.023 48.9795 11.509L49.6835 11.224C49.7675 11.553 49.9385 11.831 50.1975 12.057C50.4585 12.283 50.7495 12.397 51.0735 12.397C51.4085 12.397 51.6955 12.309 51.9325 12.133C52.1705 11.957 52.2885 11.718 52.2885 11.416C52.2885 11.081 52.1705 10.823 51.9325 10.641C51.6955 10.46 51.3195 10.291 50.8055 10.134C50.2755 9.96697 49.8725 9.74997 49.5985 9.48497C49.3255 9.21897 49.1885 8.87997 49.1885 8.46697C49.1885 8.03597 49.3595 7.66197 49.6995 7.34397C50.0405 7.02597 50.4855 6.86597 51.0315 6.86597C51.5405 6.86597 51.9535 6.99297 52.2725 7.24697C52.5905 7.50197 52.7975 7.77997 52.8925 8.08097L52.1895 8.37397C52.1385 8.18497 52.0135 8.00897 51.8155 7.84597C51.6175 7.68497 51.3615 7.60397 51.0485 7.60397C50.7525 7.60397 50.4995 7.68597 50.2905 7.85097C50.0805 8.01597 49.9765 8.22097 49.9765 8.46697C49.9765 8.68997 50.0725 8.87897 50.2645 9.03197C50.4585 9.18597 50.7415 9.32397 51.1155 9.44697C51.4115 9.54197 51.6585 9.63397 51.8575 9.72397C52.0555 9.81297 52.2575 9.93197 52.4605 10.08C52.6645 10.228 52.8185 10.412 52.9215 10.633C53.0245 10.854 53.0765 11.109 53.0765 11.4C53.0765 11.69 53.0175 11.95 52.8975 12.179C52.7765 12.408 52.6165 12.59 52.4185 12.724C52.2195 12.858 52.0075 12.96 51.7775 13.03C51.5485 13.099 51.3145 13.134 51.0735 13.134Z" fill="white"/>
<path fill-rule="evenodd" clip-rule="evenodd" d="M51.0735 13.134C50.6385 13.134 50.2125 12.992 49.7965 12.707C49.3795 12.422 49.1065 12.023 48.9795 11.509L49.6835 11.224C49.7675 11.553 49.9385 11.831 50.1975 12.057C50.4585 12.283 50.7495 12.397 51.0735 12.397C51.4085 12.397 51.6955 12.309 51.9325 12.133C52.1705 11.957 52.2885 11.718 52.2885 11.416C52.2885 11.081 52.1705 10.823 51.9325 10.641C51.6955 10.46 51.3195 10.291 50.8055 10.134C50.2755 9.96697 49.8725 9.74997 49.5985 9.48497C49.3255 9.21897 49.1885 8.87997 49.1885 8.46697C49.1885 8.03597 49.3595 7.66197 49.6995 7.34397C50.0405 7.02597 50.4855 6.86597 51.0315 6.86597C51.5405 6.86597 51.9535 6.99297 52.2725 7.24697C52.5905 7.50197 52.7975 7.77997 52.8925 8.08097L52.1895 8.37397C52.1385 8.18497 52.0135 8.00897 51.8155 7.84597C51.6175 7.68497 51.3615 7.60397 51.0485 7.60397C50.7525 7.60397 50.4995 7.68597 50.2905 7.85097C50.0805 8.01597 49.9765 8.22097 49.9765 8.46697C49.9765 8.68997 50.0725 8.87897 50.2645 9.03197C50.4585 9.18597 50.7415 9.32397 51.1155 9.44697C51.4115 9.54197 51.6585 9.63397 51.8575 9.72397C52.0555 9.81297 52.2575 9.93197 52.4605 10.08C52.6645 10.228 52.8185 10.412 52.9215 10.633C53.0245 10.854 53.0765 11.109 53.0765 11.4C53.0765 11.69 53.0175 11.95 52.8975 12.179C52.7765 12.408 52.6165 12.59 52.4185 12.724C52.2195 12.858 52.0075 12.96 51.7775 13.03C51.5485 13.099 51.3145 13.134 51.0735 13.134Z" stroke="white" stroke-width="0.2"/>
<path fill-rule="evenodd" clip-rule="evenodd" d="M54.9536 9.832H56.2446C56.5686 9.832 56.8286 9.724 57.0236 9.506C57.2196 9.288 57.3166 9.048 57.3166 8.785C57.3166 8.522 57.2196 8.282 57.0236 8.064C56.8286 7.846 56.5686 7.737 56.2446 7.737H54.9536V9.832ZM54.9536 13H54.1826V7H56.2276C56.7356 7 57.1766 7.169 57.5476 7.507C57.9196 7.845 58.1046 8.271 58.1046 8.785C58.1046 9.299 57.9196 9.725 57.5476 10.062C57.1766 10.401 56.7356 10.57 56.2276 10.57H54.9536V13Z" fill="white"/>
<path fill-rule="evenodd" clip-rule="evenodd" d="M54.9536 9.832H56.2446C56.5686 9.832 56.8286 9.724 57.0236 9.506C57.2196 9.288 57.3166 9.048 57.3166 8.785C57.3166 8.522 57.2196 8.282 57.0236 8.064C56.8286 7.846 56.5686 7.737 56.2446 7.737H54.9536V9.832ZM54.9536 13H54.1826V7H56.2276C56.7356 7 57.1766 7.169 57.5476 7.507C57.9196 7.845 58.1046 8.271 58.1046 8.785C58.1046 9.299 57.9196 9.725 57.5476 10.062C57.1766 10.401 56.7356 10.57 56.2276 10.57H54.9536V13Z" stroke="white" stroke-width="0.2"/>
<path fill-rule="evenodd" clip-rule="evenodd" d="M60.1527 11.7222C60.5967 12.1722 61.1397 12.3962 61.7827 12.3962C62.4247 12.3962 62.9687 12.1722 63.4127 11.7222C63.8567 11.2722 64.0797 10.6982 64.0797 10.0002C64.0797 9.30221 63.8567 8.72721 63.4127 8.27821C62.9687 7.82821 62.4247 7.60321 61.7827 7.60321C61.1397 7.60321 60.5967 7.82821 60.1527 8.27821C59.7097 8.72721 59.4867 9.30221 59.4867 10.0002C59.4867 10.6982 59.7097 11.2722 60.1527 11.7222ZM63.9827 12.2242C63.3927 12.8312 62.6597 13.1342 61.7827 13.1342C60.9057 13.1342 60.1727 12.8312 59.5837 12.2242C58.9937 11.6182 58.6997 10.8772 58.6997 10.0002C58.6997 9.12321 58.9937 8.38121 59.5837 7.77521C60.1727 7.16921 60.9057 6.86621 61.7827 6.86621C62.6547 6.86621 63.3857 7.17021 63.9787 7.77921C64.5707 8.38821 64.8667 9.12821 64.8667 10.0002C64.8667 10.8772 64.5717 11.6182 63.9827 12.2242Z" fill="white"/>
<path fill-rule="evenodd" clip-rule="evenodd" d="M60.1527 11.7222C60.5967 12.1722 61.1397 12.3962 61.7827 12.3962C62.4247 12.3962 62.9687 12.1722 63.4127 11.7222C63.8567 11.2722 64.0797 10.6982 64.0797 10.0002C64.0797 9.30221 63.8567 8.72721 63.4127 8.27821C62.9687 7.82821 62.4247 7.60321 61.7827 7.60321C61.1397 7.60321 60.5967 7.82821 60.1527 8.27821C59.7097 8.72721 59.4867 9.30221 59.4867 10.0002C59.4867 10.6982 59.7097 11.2722 60.1527 11.7222ZM63.9827 12.2242C63.3927 12.8312 62.6597 13.1342 61.7827 13.1342C60.9057 13.1342 60.1727 12.8312 59.5837 12.2242C58.9937 11.6182 58.6997 10.8772 58.6997 10.0002C58.6997 9.12321 58.9937 8.38121 59.5837 7.77521C60.1727 7.16921 60.9057 6.86621 61.7827 6.86621C62.6547 6.86621 63.3857 7.17021 63.9787 7.77921C64.5707 8.38821 64.8667 9.12821 64.8667 10.0002C64.8667 10.8772 64.5717 11.6182 63.9827 12.2242Z" stroke="white" stroke-width="0.2"/>
<path fill-rule="evenodd" clip-rule="evenodd" d="M65.9485 13V7H66.8865L69.8035 11.667H69.8365L69.8035 10.511V7H70.5745V13H69.7705L66.7195 8.106H66.6855L66.7195 9.263V13H65.9485Z" fill="white"/>
<path fill-rule="evenodd" clip-rule="evenodd" d="M65.9485 13V7H66.8865L69.8035 11.667H69.8365L69.8035 10.511V7H70.5745V13H69.7705L66.7195 8.106H66.6855L66.7195 9.263V13H65.9485Z" stroke="white" stroke-width="0.2"/>
<path fill-rule="evenodd" clip-rule="evenodd" d="M71.949 13H72.72V7H71.949V13Z" fill="white"/>
<path fill-rule="evenodd" clip-rule="evenodd" d="M71.949 13H72.72V7H71.949V13Z" stroke="white" stroke-width="0.2"/>
<path fill-rule="evenodd" clip-rule="evenodd" d="M74.8643 12.2628H76.4153C76.7113 12.2628 76.9513 12.1588 77.1353 11.9518C77.3203 11.7458 77.4123 11.5198 77.4123 11.2738C77.4123 11.0278 77.3173 10.8038 77.1273 10.5988C76.9373 10.3958 76.6883 10.2928 76.3813 10.2928H74.8643V12.2628ZM74.8643 9.57276H76.2633C76.5543 9.57276 76.7883 9.47676 76.9643 9.28376C77.1393 9.09076 77.2273 8.87976 77.2273 8.65076C77.2273 8.42176 77.1423 8.21176 76.9713 8.02276C76.8013 7.83276 76.5773 7.73776 76.2983 7.73776H74.8643V9.57276ZM74.0933 12.9998V6.99976H76.2633C76.7333 6.99976 77.1393 7.15576 77.4833 7.46476C77.8273 7.77576 77.9993 8.16476 77.9993 8.63376C77.9993 8.91876 77.9253 9.17076 77.7763 9.38776C77.6293 9.60676 77.4313 9.77076 77.1853 9.88276V9.91576C77.4813 10.0168 77.7243 10.1898 77.9153 10.4358C78.1043 10.6818 78.2003 10.9668 78.2003 11.2908C78.2003 11.7828 78.0193 12.1898 77.6593 12.5138C77.2993 12.8378 76.8733 12.9998 76.3813 12.9998H74.0933Z" fill="white"/>
<path fill-rule="evenodd" clip-rule="evenodd" d="M74.8643 12.2628H76.4153C76.7113 12.2628 76.9513 12.1588 77.1353 11.9518C77.3203 11.7458 77.4123 11.5198 77.4123 11.2738C77.4123 11.0278 77.3173 10.8038 77.1273 10.5988C76.9373 10.3958 76.6883 10.2928 76.3813 10.2928H74.8643V12.2628ZM74.8643 9.57276H76.2633C76.5543 9.57276 76.7883 9.47676 76.9643 9.28376C77.1393 9.09076 77.2273 8.87976 77.2273 8.65076C77.2273 8.42176 77.1423 8.21176 76.9713 8.02276C76.8013 7.83276 76.5773 7.73776 76.2983 7.73776H74.8643V9.57276ZM74.0933 12.9998V6.99976H76.2633C76.7333 6.99976 77.1393 7.15576 77.4833 7.46476C77.8273 7.77576 77.9993 8.16476 77.9993 8.63376C77.9993 8.91876 77.9253 9.17076 77.7763 9.38776C77.6293 9.60676 77.4313 9.77076 77.1853 9.88276V9.91576C77.4813 10.0168 77.7243 10.1898 77.9153 10.4358C78.1043 10.6818 78.2003 10.9668 78.2003 11.2908C78.2003 11.7828 78.0193 12.1898 77.6593 12.5138C77.2993 12.8378 76.8733 12.9998 76.3813 12.9998H74.0933Z" stroke="white" stroke-width="0.2"/>
<path fill-rule="evenodd" clip-rule="evenodd" d="M79.2393 13V7H80.0103V12.263H82.6073V13H79.2393Z" fill="white"/>
<path fill-rule="evenodd" clip-rule="evenodd" d="M79.2393 13V7H80.0103V12.263H82.6073V13H79.2393Z" stroke="white" stroke-width="0.2"/>
<path fill-rule="evenodd" clip-rule="evenodd" d="M87.0828 7.73749H84.3508V9.63949H86.8138V10.3605H84.3508V12.2625H87.0828V13.0005H83.5798V7.00049H87.0828V7.73749Z" fill="white"/>
<path fill-rule="evenodd" clip-rule="evenodd" d="M87.0828 7.73749H84.3508V9.63949H86.8138V10.3605H84.3508V12.2625H87.0828V13.0005H83.5798V7.00049H87.0828V7.73749Z" stroke="white" stroke-width="0.2"/>
<path fill-rule="evenodd" clip-rule="evenodd" d="M91.7422 13.134C91.3052 13.134 90.8812 12.992 90.4642 12.707C90.0482 12.422 89.7752 12.023 89.6472 11.509L90.3512 11.224C90.4342 11.553 90.6052 11.831 90.8662 12.057C91.1272 12.283 91.4182 12.397 91.7422 12.397C92.0762 12.397 92.3642 12.309 92.6012 12.133C92.8392 11.957 92.9562 11.718 92.9562 11.416C92.9562 11.081 92.8392 10.823 92.6012 10.641C92.3642 10.46 91.9882 10.291 91.4742 10.134C90.9432 9.96697 90.5412 9.74997 90.2672 9.48497C89.9932 9.21897 89.8552 8.87997 89.8552 8.46697C89.8552 8.03597 90.0262 7.66197 90.3682 7.34397C90.7092 7.02597 91.1532 6.86597 91.7002 6.86597C92.2092 6.86597 92.6222 6.99297 92.9392 7.24697C93.2592 7.50197 93.4652 7.77997 93.5592 8.08097L92.8562 8.37397C92.8052 8.18497 92.6822 8.00897 92.4842 7.84597C92.2852 7.68497 92.0302 7.60397 91.7172 7.60397C91.4212 7.60397 91.1682 7.68597 90.9592 7.85097C90.7492 8.01597 90.6442 8.22097 90.6442 8.46697C90.6442 8.68997 90.7412 8.87897 90.9332 9.03197C91.1272 9.18597 91.4102 9.32397 91.7842 9.44697C92.0802 9.54197 92.3262 9.63397 92.5262 9.72397C92.7242 9.81297 92.9262 9.93197 93.1292 10.08C93.3332 10.228 93.4852 10.412 93.5892 10.633C93.6932 10.854 93.7442 11.109 93.7442 11.4C93.7442 11.69 93.6842 11.95 93.5642 12.179C93.4452 12.408 93.2852 12.59 93.0872 12.724C92.8882 12.858 92.6762 12.96 92.4462 13.03C92.2172 13.099 91.9822 13.134 91.7422 13.134Z" fill="white"/>
<path fill-rule="evenodd" clip-rule="evenodd" d="M91.7422 13.134C91.3052 13.134 90.8812 12.992 90.4642 12.707C90.0482 12.422 89.7752 12.023 89.6472 11.509L90.3512 11.224C90.4342 11.553 90.6052 11.831 90.8662 12.057C91.1272 12.283 91.4182 12.397 91.7422 12.397C92.0762 12.397 92.3642 12.309 92.6012 12.133C92.8392 11.957 92.9562 11.718 92.9562 11.416C92.9562 11.081 92.8392 10.823 92.6012 10.641C92.3642 10.46 91.9882 10.291 91.4742 10.134C90.9432 9.96697 90.5412 9.74997 90.2672 9.48497C89.9932 9.21897 89.8552 8.87997 89.8552 8.46697C89.8552 8.03597 90.0262 7.66197 90.3682 7.34397C90.7092 7.02597 91.1532 6.86597 91.7002 6.86597C92.2092 6.86597 92.6222 6.99297 92.9392 7.24697C93.2592 7.50197 93.4652 7.77997 93.5592 8.08097L92.8562 8.37397C92.8052 8.18497 92.6822 8.00897 92.4842 7.84597C92.2852 7.68497 92.0302 7.60397 91.7172 7.60397C91.4212 7.60397 91.1682 7.68597 90.9592 7.85097C90.7492 8.01597 90.6442 8.22097 90.6442 8.46697C90.6442 8.68997 90.7412 8.87897 90.9332 9.03197C91.1272 9.18597 91.4102 9.32397 91.7842 9.44697C92.0802 9.54197 92.3262 9.63397 92.5262 9.72397C92.7242 9.81297 92.9262 9.93197 93.1292 10.08C93.3332 10.228 93.4852 10.412 93.5892 10.633C93.6932 10.854 93.7442 11.109 93.7442 11.4C93.7442 11.69 93.6842 11.95 93.5642 12.179C93.4452 12.408 93.2852 12.59 93.0872 12.724C92.8882 12.858 92.6762 12.96 92.4462 13.03C92.2172 13.099 91.9822 13.134 91.7422 13.134Z" stroke="white" stroke-width="0.2"/>
<path fill-rule="evenodd" clip-rule="evenodd" d="M96.9373 13.134C96.2763 13.134 95.7433 12.916 95.3313 12.481C94.9213 12.045 94.7163 11.475 94.7163 10.771V7H95.4873V10.805C95.4873 11.28 95.6103 11.663 95.8603 11.957C96.1083 12.25 96.4673 12.397 96.9373 12.397C97.4063 12.397 97.7643 12.25 98.0133 11.957C98.2613 11.663 98.3853 11.28 98.3853 10.805V7H99.1573V10.771C99.1573 11.481 98.9573 12.052 98.5573 12.485C98.1593 12.918 97.6183 13.134 96.9373 13.134Z" fill="white"/>
<path fill-rule="evenodd" clip-rule="evenodd" d="M96.9373 13.134C96.2763 13.134 95.7433 12.916 95.3313 12.481C94.9213 12.045 94.7163 11.475 94.7163 10.771V7H95.4873V10.805C95.4873 11.28 95.6103 11.663 95.8603 11.957C96.1083 12.25 96.4673 12.397 96.9373 12.397C97.4063 12.397 97.7643 12.25 98.0133 11.957C98.2613 11.663 98.3853 11.28 98.3853 10.805V7H99.1573V10.771C99.1573 11.481 98.9573 12.052 98.5573 12.485C98.1593 12.918 97.6183 13.134 96.9373 13.134Z" stroke="white" stroke-width="0.2"/>
<path fill-rule="evenodd" clip-rule="evenodd" d="M101.168 9.84924H102.408C102.716 9.84924 102.98 9.74824 103.2 9.54724C103.421 9.34724 103.531 9.09224 103.531 8.78524C103.531 8.52224 103.434 8.28224 103.239 8.06424C103.043 7.84624 102.783 7.73724 102.46 7.73724H101.168V9.84924ZM100.397 13.0002V7.00024H102.443C102.95 7.00024 103.391 7.16924 103.762 7.50724C104.134 7.84524 104.319 8.27124 104.319 8.78524C104.319 9.20424 104.183 9.57424 103.908 9.89524C103.635 10.2172 103.294 10.4192 102.886 10.5032L102.869 10.5282L104.554 12.9672V13.0002H103.641L102.023 10.5702H101.168V13.0002H100.397Z" fill="white"/>
<path fill-rule="evenodd" clip-rule="evenodd" d="M101.168 9.84924H102.408C102.716 9.84924 102.98 9.74824 103.2 9.54724C103.421 9.34724 103.531 9.09224 103.531 8.78524C103.531 8.52224 103.434 8.28224 103.239 8.06424C103.043 7.84624 102.783 7.73724 102.46 7.73724H101.168V9.84924ZM100.397 13.0002V7.00024H102.443C102.95 7.00024 103.391 7.16924 103.762 7.50724C104.134 7.84524 104.319 8.27124 104.319 8.78524C104.319 9.20424 104.183 9.57424 103.908 9.89524C103.635 10.2172 103.294 10.4192 102.886 10.5032L102.869 10.5282L104.554 12.9672V13.0002H103.641L102.023 10.5702H101.168V13.0002H100.397Z" stroke="white" stroke-width="0.2"/>
</g>
</g>
<defs>
<linearGradient id="paint0_linear_5628_34796" x1="24.8268" y1="23.9748" x2="6.68809" y2="42.1135" gradientUnits="userSpaceOnUse">
<stop stop-color="#FF3A44"/>
<stop offset="1" stop-color="#C31162"/>
</linearGradient>
<clipPath id="clip0_5628_34796">
<rect width="135" height="40" fill="white"/>
</clipPath>
</defs>
</svg>
