<svg width="135" height="40" viewBox="0 0 135 40" fill="none" xmlns="http://www.w3.org/2000/svg">
<g clip-path="url(#clip0_11241_55345)">
<mask id="mask0_11241_55345" style="mask-type:alpha" maskUnits="userSpaceOnUse" x="0" y="0" width="135" height="40">
<path d="M0 0H134.999V39.9996H0V0Z" fill="white"/>
</mask>
<g mask="url(#mask0_11241_55345)">
<path fill-rule="evenodd" clip-rule="evenodd" d="M129.999 40H5C2.25 40 0 37.75 0 35V5C0 2.25 2.25 0 5 0H129.999C132.749 0 134.999 2.25 134.999 5V35C134.999 37.75 132.749 40 129.999 40Z" fill="black"/>
</g>
<mask id="mask1_11241_55345" style="mask-type:alpha" maskUnits="userSpaceOnUse" x="0" y="0" width="135" height="40">
<path d="M0 0H134.999V39.9999H0V0Z" fill="white"/>
</mask>
<g mask="url(#mask1_11241_55345)">
<path fill-rule="evenodd" clip-rule="evenodd" d="M129.999 0H5C2.25 0 0 2.25 0 5V35C0 37.75 2.25 40 5 40H129.999C132.749 40 134.999 37.75 134.999 35V5C134.999 2.25 132.749 0 129.999 0ZM129.999 0.8C132.315 0.8 134.199 2.684 134.199 5V35C134.199 37.316 132.315 39.2 129.999 39.2H5C2.684 39.2 0.8 37.316 0.8 35V5C0.8 2.684 2.684 0.8 5 0.8H129.999Z" fill="white"/>
</g>
<mask id="mask2_11241_55345" style="mask-type:alpha" maskUnits="userSpaceOnUse" x="0" y="0" width="135" height="40">
<path d="M0 40H134.999V0H0V40Z" fill="white"/>
</mask>
<g mask="url(#mask2_11241_55345)">
<path fill-rule="evenodd" clip-rule="evenodd" d="M106.935 29.9999H108.801V17.4989H106.935V29.9999ZM123.743 22.0019L121.603 27.4219H121.539L119.32 22.0019H117.309L120.639 29.5769L118.741 33.7909H120.686L125.817 22.0019H123.743ZM113.16 28.5799C112.549 28.5799 111.696 28.2749 111.696 27.5189C111.696 26.5539 112.758 26.1839 113.675 26.1839C114.495 26.1839 114.881 26.3599 115.38 26.6019C115.234 27.7599 114.237 28.5799 113.16 28.5799ZM113.385 21.7289C112.034 21.7289 110.635 22.3239 110.056 23.6429L111.713 24.3339C112.066 23.6429 112.725 23.4169 113.417 23.4169C114.383 23.4169 115.363 23.9959 115.38 25.0249V25.1539C115.042 24.9609 114.318 24.6719 113.434 24.6719C111.648 24.6719 109.831 25.6529 109.831 27.4859C109.831 29.1589 111.294 30.2359 112.934 30.2359C114.189 30.2359 114.881 29.6729 115.315 29.0139H115.38V29.9789H117.181V25.1869C117.181 22.9669 115.524 21.7289 113.385 21.7289ZM101.853 23.5239H99.2V19.2379H101.853C103.249 19.2379 104.041 20.3939 104.041 21.3809C104.041 22.3499 103.249 23.5239 101.853 23.5239ZM101.806 17.4989H97.334V29.9999H99.2V25.2639H101.806C103.874 25.2639 105.906 23.7659 105.906 21.3809C105.906 18.9959 103.874 17.4989 101.806 17.4989ZM77.425 28.5819C76.136 28.5819 75.057 27.5029 75.057 26.0209C75.057 24.5229 76.136 23.4269 77.425 23.4269C78.697 23.4269 79.696 24.5229 79.696 26.0209C79.696 27.5029 78.697 28.5819 77.425 28.5819ZM79.567 22.7019H79.503C79.084 22.2029 78.278 21.7519 77.264 21.7519C75.137 21.7519 73.187 23.6199 73.187 26.0209C73.187 28.4049 75.137 30.2579 77.264 30.2579C78.278 30.2579 79.084 29.8069 79.503 29.2909H79.567V29.9029C79.567 31.5309 78.697 32.3999 77.296 32.3999C76.151 32.3999 75.442 31.5789 75.153 30.8859L73.525 31.5629C73.993 32.6909 75.233 34.0759 77.296 34.0759C79.486 34.0759 81.339 32.7869 81.339 29.6459V22.0089H79.567V22.7019ZM82.628 29.9999H84.497V17.4989H82.628V29.9999ZM87.252 25.8759C87.203 24.2329 88.524 23.3949 89.475 23.3949C90.216 23.3949 90.845 23.7649 91.054 24.2969L87.252 25.8759ZM93.052 24.4579C92.697 23.5069 91.618 21.7519 89.41 21.7519C87.22 21.7519 85.399 23.4749 85.399 26.0049C85.399 28.3889 87.203 30.2579 89.62 30.2579C91.569 30.2579 92.697 29.0659 93.164 28.3729L91.714 27.4059C91.231 28.1149 90.57 28.5819 89.62 28.5819C88.67 28.5819 87.993 28.1479 87.558 27.2939L93.245 24.9419L93.052 24.4579ZM47.744 23.0569V24.8609H52.061C51.932 25.8759 51.594 26.6169 51.078 27.1319C50.45 27.7609 49.467 28.4529 47.744 28.4529C45.085 28.4529 43.007 26.3109 43.007 23.6519C43.007 20.9939 45.085 18.8519 47.744 18.8519C49.177 18.8519 50.225 19.4159 50.998 20.1409L52.27 18.8679C51.191 17.8369 49.757 17.0469 47.744 17.0469C44.102 17.0469 41.041 20.0119 41.041 23.6519C41.041 27.2939 44.102 30.2579 47.744 30.2579C49.709 30.2579 51.191 29.6129 52.351 28.4049C53.543 27.2129 53.914 25.5379 53.914 24.1839C53.914 23.7649 53.882 23.3789 53.817 23.0569H47.744ZM58.822 28.5819C57.533 28.5819 56.422 27.5189 56.422 26.0049C56.422 24.4739 57.533 23.4269 58.822 23.4269C60.111 23.4269 61.223 24.4739 61.223 26.0049C61.223 27.5189 60.111 28.5819 58.822 28.5819ZM58.822 21.7519C56.47 21.7519 54.553 23.5399 54.553 26.0049C54.553 28.4529 56.47 30.2579 58.822 30.2579C61.174 30.2579 63.091 28.4529 63.091 26.0049C63.091 23.5399 61.174 21.7519 58.822 21.7519ZM68.136 28.5819C66.847 28.5819 65.735 27.5189 65.735 26.0049C65.735 24.4739 66.847 23.4269 68.136 23.4269C69.425 23.4269 70.536 24.4739 70.536 26.0049C70.536 27.5189 69.425 28.5819 68.136 28.5819ZM68.136 21.7519C65.783 21.7519 63.866 23.5399 63.866 26.0049C63.866 28.4529 65.783 30.2579 68.136 30.2579C70.487 30.2579 72.405 28.4529 72.405 26.0049C72.405 23.5399 70.487 21.7519 68.136 21.7519Z" fill="white"/>
</g>
<path fill-rule="evenodd" clip-rule="evenodd" d="M10.4357 7.53784C10.1447 7.84584 9.97266 8.32384 9.97266 8.94284V31.0588C9.97266 31.6788 10.1447 32.1558 10.4357 32.4638L10.5087 32.5348L22.8987 20.1468V20.0008V19.8538L10.5087 7.46484L10.4357 7.53784Z" fill="#00D2FF"/>
<path fill-rule="evenodd" clip-rule="evenodd" d="M22.8994 19.8536V20.0006V20.1466L27.0284 24.2786L27.1224 24.2246L32.0154 21.4456C33.4124 20.6506 33.4124 19.3506 32.0154 18.5566L27.1224 15.7766L27.0294 15.7236L22.8994 19.8536Z" fill="#FFE000"/>
<path fill-rule="evenodd" clip-rule="evenodd" d="M10.4355 32.464C10.8955 32.952 11.6565 33.012 12.5135 32.525L27.1215 24.225L22.8985 20.001L10.4355 32.464Z" fill="url(#paint0_linear_11241_55345)"/>
<path fill-rule="evenodd" clip-rule="evenodd" d="M10.4355 7.53765L22.8985 20.0006L27.1215 15.7766L12.5135 7.47665C12.1115 7.24765 11.7305 7.13965 11.3925 7.13965C11.0085 7.13965 10.6795 7.27865 10.4355 7.53765Z" fill="#00F076"/>
<path fill-rule="evenodd" clip-rule="evenodd" d="M42.0483 12.263H43.1123C43.8053 12.263 44.3543 12.065 44.7593 11.668C45.1643 11.271 45.3663 10.715 45.3663 10C45.3663 9.291 45.1643 8.737 44.7593 8.337C44.3543 7.938 43.8053 7.738 43.1123 7.738H42.0483V12.263ZM41.2773 13V7H43.1123C44.0343 7 44.7723 7.278 45.3253 7.834C45.8783 8.39 46.1543 9.112 46.1543 10C46.1543 10.888 45.8783 11.611 45.3253 12.166C44.7723 12.722 44.0343 13 43.1123 13H41.2773Z" fill="white"/>
<path fill-rule="evenodd" clip-rule="evenodd" d="M42.0483 12.263H43.1123C43.8053 12.263 44.3543 12.065 44.7593 11.668C45.1643 11.271 45.3663 10.715 45.3663 10C45.3663 9.291 45.1643 8.737 44.7593 8.337C44.3543 7.938 43.8053 7.738 43.1123 7.738H42.0483V12.263ZM41.2773 13V7H43.1123C44.0343 7 44.7723 7.278 45.3253 7.834C45.8783 8.39 46.1543 9.112 46.1543 10C46.1543 10.888 45.8783 11.611 45.3253 12.166C44.7723 12.722 44.0343 13 43.1123 13H41.2773Z" stroke="white" stroke-width="0.2"/>
<mask id="mask3_11241_55345" style="mask-type:alpha" maskUnits="userSpaceOnUse" x="0" y="0" width="135" height="40">
<path d="M0 40H134.999V0H0V40Z" fill="white"/>
</mask>
<g mask="url(#mask3_11241_55345)">
<path fill-rule="evenodd" clip-rule="evenodd" d="M47.2373 13H48.0073V7H47.2373V13Z" fill="white"/>
<path fill-rule="evenodd" clip-rule="evenodd" d="M47.2373 13H48.0073V7H47.2373V13Z" stroke="white" stroke-width="0.2"/>
<path fill-rule="evenodd" clip-rule="evenodd" d="M51.0735 13.1342C50.6385 13.1342 50.2125 12.9922 49.7965 12.7072C49.3795 12.4222 49.1065 12.0232 48.9795 11.5092L49.6835 11.2242C49.7675 11.5532 49.9385 11.8312 50.1975 12.0572C50.4585 12.2832 50.7495 12.3972 51.0735 12.3972C51.4085 12.3972 51.6955 12.3092 51.9325 12.1332C52.1705 11.9572 52.2885 11.7182 52.2885 11.4162C52.2885 11.0812 52.1705 10.8232 51.9325 10.6412C51.6955 10.4602 51.3195 10.2912 50.8055 10.1342C50.2755 9.96721 49.8725 9.75021 49.5985 9.48521C49.3255 9.21921 49.1885 8.88021 49.1885 8.46721C49.1885 8.03621 49.3595 7.66221 49.6995 7.34421C50.0405 7.02621 50.4855 6.86621 51.0315 6.86621C51.5405 6.86621 51.9535 6.99321 52.2725 7.24721C52.5905 7.50221 52.7975 7.78021 52.8925 8.08121L52.1895 8.37421C52.1385 8.18521 52.0135 8.00921 51.8155 7.84621C51.6175 7.68521 51.3615 7.60421 51.0485 7.60421C50.7525 7.60421 50.4995 7.68621 50.2905 7.85121C50.0805 8.01621 49.9765 8.22121 49.9765 8.46721C49.9765 8.69021 50.0725 8.87921 50.2645 9.03221C50.4585 9.18621 50.7415 9.32421 51.1155 9.44721C51.4115 9.54221 51.6585 9.63421 51.8575 9.72421C52.0555 9.81321 52.2575 9.93221 52.4605 10.0802C52.6645 10.2282 52.8185 10.4122 52.9215 10.6332C53.0245 10.8542 53.0765 11.1092 53.0765 11.4002C53.0765 11.6902 53.0175 11.9502 52.8975 12.1792C52.7765 12.4082 52.6165 12.5902 52.4185 12.7242C52.2195 12.8582 52.0075 12.9602 51.7775 13.0302C51.5485 13.0992 51.3145 13.1342 51.0735 13.1342Z" fill="white"/>
<path fill-rule="evenodd" clip-rule="evenodd" d="M51.0735 13.1342C50.6385 13.1342 50.2125 12.9922 49.7965 12.7072C49.3795 12.4222 49.1065 12.0232 48.9795 11.5092L49.6835 11.2242C49.7675 11.5532 49.9385 11.8312 50.1975 12.0572C50.4585 12.2832 50.7495 12.3972 51.0735 12.3972C51.4085 12.3972 51.6955 12.3092 51.9325 12.1332C52.1705 11.9572 52.2885 11.7182 52.2885 11.4162C52.2885 11.0812 52.1705 10.8232 51.9325 10.6412C51.6955 10.4602 51.3195 10.2912 50.8055 10.1342C50.2755 9.96721 49.8725 9.75021 49.5985 9.48521C49.3255 9.21921 49.1885 8.88021 49.1885 8.46721C49.1885 8.03621 49.3595 7.66221 49.6995 7.34421C50.0405 7.02621 50.4855 6.86621 51.0315 6.86621C51.5405 6.86621 51.9535 6.99321 52.2725 7.24721C52.5905 7.50221 52.7975 7.78021 52.8925 8.08121L52.1895 8.37421C52.1385 8.18521 52.0135 8.00921 51.8155 7.84621C51.6175 7.68521 51.3615 7.60421 51.0485 7.60421C50.7525 7.60421 50.4995 7.68621 50.2905 7.85121C50.0805 8.01621 49.9765 8.22121 49.9765 8.46721C49.9765 8.69021 50.0725 8.87921 50.2645 9.03221C50.4585 9.18621 50.7415 9.32421 51.1155 9.44721C51.4115 9.54221 51.6585 9.63421 51.8575 9.72421C52.0555 9.81321 52.2575 9.93221 52.4605 10.0802C52.6645 10.2282 52.8185 10.4122 52.9215 10.6332C53.0245 10.8542 53.0765 11.1092 53.0765 11.4002C53.0765 11.6902 53.0175 11.9502 52.8975 12.1792C52.7765 12.4082 52.6165 12.5902 52.4185 12.7242C52.2195 12.8582 52.0075 12.9602 51.7775 13.0302C51.5485 13.0992 51.3145 13.1342 51.0735 13.1342Z" stroke="white" stroke-width="0.2"/>
<path fill-rule="evenodd" clip-rule="evenodd" d="M54.9536 9.832H56.2446C56.5686 9.832 56.8286 9.724 57.0236 9.506C57.2196 9.288 57.3166 9.048 57.3166 8.785C57.3166 8.522 57.2196 8.282 57.0236 8.064C56.8286 7.846 56.5686 7.737 56.2446 7.737H54.9536V9.832ZM54.9536 13H54.1826V7H56.2276C56.7356 7 57.1766 7.169 57.5476 7.507C57.9196 7.845 58.1046 8.271 58.1046 8.785C58.1046 9.299 57.9196 9.725 57.5476 10.062C57.1766 10.401 56.7356 10.57 56.2276 10.57H54.9536V13Z" fill="white"/>
<path fill-rule="evenodd" clip-rule="evenodd" d="M54.9536 9.832H56.2446C56.5686 9.832 56.8286 9.724 57.0236 9.506C57.2196 9.288 57.3166 9.048 57.3166 8.785C57.3166 8.522 57.2196 8.282 57.0236 8.064C56.8286 7.846 56.5686 7.737 56.2446 7.737H54.9536V9.832ZM54.9536 13H54.1826V7H56.2276C56.7356 7 57.1766 7.169 57.5476 7.507C57.9196 7.845 58.1046 8.271 58.1046 8.785C58.1046 9.299 57.9196 9.725 57.5476 10.062C57.1766 10.401 56.7356 10.57 56.2276 10.57H54.9536V13Z" stroke="white" stroke-width="0.2"/>
<path fill-rule="evenodd" clip-rule="evenodd" d="M60.1522 11.7222C60.5962 12.1722 61.1392 12.3962 61.7822 12.3962C62.4242 12.3962 62.9682 12.1722 63.4122 11.7222C63.8562 11.2722 64.0792 10.6982 64.0792 10.0002C64.0792 9.30221 63.8562 8.72721 63.4122 8.27821C62.9682 7.82821 62.4242 7.60321 61.7822 7.60321C61.1392 7.60321 60.5962 7.82821 60.1522 8.27821C59.7092 8.72721 59.4862 9.30221 59.4862 10.0002C59.4862 10.6982 59.7092 11.2722 60.1522 11.7222ZM63.9822 12.2242C63.3922 12.8312 62.6592 13.1342 61.7822 13.1342C60.9052 13.1342 60.1722 12.8312 59.5832 12.2242C58.9932 11.6182 58.6992 10.8772 58.6992 10.0002C58.6992 9.12321 58.9932 8.38121 59.5832 7.77521C60.1722 7.16921 60.9052 6.86621 61.7822 6.86621C62.6542 6.86621 63.3852 7.17021 63.9782 7.77921C64.5702 8.38821 64.8662 9.12821 64.8662 10.0002C64.8662 10.8772 64.5712 11.6182 63.9822 12.2242Z" fill="white"/>
<path fill-rule="evenodd" clip-rule="evenodd" d="M60.1522 11.7222C60.5962 12.1722 61.1392 12.3962 61.7822 12.3962C62.4242 12.3962 62.9682 12.1722 63.4122 11.7222C63.8562 11.2722 64.0792 10.6982 64.0792 10.0002C64.0792 9.30221 63.8562 8.72721 63.4122 8.27821C62.9682 7.82821 62.4242 7.60321 61.7822 7.60321C61.1392 7.60321 60.5962 7.82821 60.1522 8.27821C59.7092 8.72721 59.4862 9.30221 59.4862 10.0002C59.4862 10.6982 59.7092 11.2722 60.1522 11.7222ZM63.9822 12.2242C63.3922 12.8312 62.6592 13.1342 61.7822 13.1342C60.9052 13.1342 60.1722 12.8312 59.5832 12.2242C58.9932 11.6182 58.6992 10.8772 58.6992 10.0002C58.6992 9.12321 58.9932 8.38121 59.5832 7.77521C60.1722 7.16921 60.9052 6.86621 61.7822 6.86621C62.6542 6.86621 63.3852 7.17021 63.9782 7.77921C64.5702 8.38821 64.8662 9.12821 64.8662 10.0002C64.8662 10.8772 64.5712 11.6182 63.9822 12.2242Z" stroke="white" stroke-width="0.2"/>
<path fill-rule="evenodd" clip-rule="evenodd" d="M65.9482 13V7H66.8862L69.8032 11.667H69.8362L69.8032 10.511V7H70.5742V13H69.7702L66.7192 8.106H66.6852L66.7192 9.263V13H65.9482Z" fill="white"/>
<path fill-rule="evenodd" clip-rule="evenodd" d="M65.9482 13V7H66.8862L69.8032 11.667H69.8362L69.8032 10.511V7H70.5742V13H69.7702L66.7192 8.106H66.6852L66.7192 9.263V13H65.9482Z" stroke="white" stroke-width="0.2"/>
<path fill-rule="evenodd" clip-rule="evenodd" d="M71.9492 13H72.7202V7H71.9492V13Z" fill="white"/>
<path fill-rule="evenodd" clip-rule="evenodd" d="M71.9492 13H72.7202V7H71.9492V13Z" stroke="white" stroke-width="0.2"/>
<path fill-rule="evenodd" clip-rule="evenodd" d="M74.8638 12.263H76.4148C76.7108 12.263 76.9508 12.159 77.1348 11.952C77.3198 11.746 77.4118 11.52 77.4118 11.274C77.4118 11.028 77.3168 10.804 77.1268 10.599C76.9368 10.396 76.6878 10.293 76.3808 10.293H74.8638V12.263ZM74.8638 9.573H76.2628C76.5538 9.573 76.7878 9.477 76.9638 9.284C77.1388 9.091 77.2268 8.88 77.2268 8.651C77.2268 8.422 77.1418 8.212 76.9708 8.023C76.8008 7.833 76.5768 7.738 76.2978 7.738H74.8638V9.573ZM74.0928 13V7H76.2628C76.7328 7 77.1388 7.156 77.4828 7.465C77.8268 7.776 77.9988 8.165 77.9988 8.634C77.9988 8.919 77.9248 9.171 77.7758 9.388C77.6288 9.607 77.4308 9.771 77.1848 9.883V9.916C77.4808 10.017 77.7238 10.19 77.9148 10.436C78.1038 10.682 78.1998 10.967 78.1998 11.291C78.1998 11.783 78.0188 12.19 77.6588 12.514C77.2988 12.838 76.8728 13 76.3808 13H74.0928Z" fill="white"/>
<path fill-rule="evenodd" clip-rule="evenodd" d="M74.8638 12.263H76.4148C76.7108 12.263 76.9508 12.159 77.1348 11.952C77.3198 11.746 77.4118 11.52 77.4118 11.274C77.4118 11.028 77.3168 10.804 77.1268 10.599C76.9368 10.396 76.6878 10.293 76.3808 10.293H74.8638V12.263ZM74.8638 9.573H76.2628C76.5538 9.573 76.7878 9.477 76.9638 9.284C77.1388 9.091 77.2268 8.88 77.2268 8.651C77.2268 8.422 77.1418 8.212 76.9708 8.023C76.8008 7.833 76.5768 7.738 76.2978 7.738H74.8638V9.573ZM74.0928 13V7H76.2628C76.7328 7 77.1388 7.156 77.4828 7.465C77.8268 7.776 77.9988 8.165 77.9988 8.634C77.9988 8.919 77.9248 9.171 77.7758 9.388C77.6288 9.607 77.4308 9.771 77.1848 9.883V9.916C77.4808 10.017 77.7238 10.19 77.9148 10.436C78.1038 10.682 78.1998 10.967 78.1998 11.291C78.1998 11.783 78.0188 12.19 77.6588 12.514C77.2988 12.838 76.8728 13 76.3808 13H74.0928Z" stroke="white" stroke-width="0.2"/>
<path fill-rule="evenodd" clip-rule="evenodd" d="M79.2393 13V7H80.0103V12.263H82.6073V13H79.2393Z" fill="white"/>
<path fill-rule="evenodd" clip-rule="evenodd" d="M79.2393 13V7H80.0103V12.263H82.6073V13H79.2393Z" stroke="white" stroke-width="0.2"/>
<path fill-rule="evenodd" clip-rule="evenodd" d="M87.0831 7.737H84.3511V9.639H86.8141V10.36H84.3511V12.262H87.0831V13H83.5801V7H87.0831V7.737Z" fill="white"/>
<path fill-rule="evenodd" clip-rule="evenodd" d="M87.0831 7.737H84.3511V9.639H86.8141V10.36H84.3511V12.262H87.0831V13H83.5801V7H87.0831V7.737Z" stroke="white" stroke-width="0.2"/>
<path fill-rule="evenodd" clip-rule="evenodd" d="M91.7425 13.1342C91.3055 13.1342 90.8815 12.9922 90.4645 12.7072C90.0485 12.4222 89.7755 12.0232 89.6475 11.5092L90.3515 11.2242C90.4345 11.5532 90.6055 11.8312 90.8665 12.0572C91.1275 12.2832 91.4185 12.3972 91.7425 12.3972C92.0765 12.3972 92.3645 12.3092 92.6015 12.1332C92.8395 11.9572 92.9565 11.7182 92.9565 11.4162C92.9565 11.0812 92.8395 10.8232 92.6015 10.6412C92.3645 10.4602 91.9885 10.2912 91.4745 10.1342C90.9435 9.96721 90.5415 9.75021 90.2675 9.48521C89.9935 9.21921 89.8555 8.88021 89.8555 8.46721C89.8555 8.03621 90.0265 7.66221 90.3685 7.34421C90.7095 7.02621 91.1535 6.86621 91.7005 6.86621C92.2095 6.86621 92.6225 6.99321 92.9395 7.24721C93.2595 7.50221 93.4655 7.78021 93.5595 8.08121L92.8565 8.37421C92.8055 8.18521 92.6825 8.00921 92.4845 7.84621C92.2855 7.68521 92.0305 7.60421 91.7175 7.60421C91.4215 7.60421 91.1685 7.68621 90.9595 7.85121C90.7495 8.01621 90.6445 8.22121 90.6445 8.46721C90.6445 8.69021 90.7415 8.87921 90.9335 9.03221C91.1275 9.18621 91.4105 9.32421 91.7845 9.44721C92.0805 9.54221 92.3265 9.63421 92.5265 9.72421C92.7245 9.81321 92.9265 9.93221 93.1295 10.0802C93.3335 10.2282 93.4855 10.4122 93.5895 10.6332C93.6935 10.8542 93.7445 11.1092 93.7445 11.4002C93.7445 11.6902 93.6845 11.9502 93.5645 12.1792C93.4455 12.4082 93.2855 12.5902 93.0875 12.7242C92.8885 12.8582 92.6765 12.9602 92.4465 13.0302C92.2175 13.0992 91.9825 13.1342 91.7425 13.1342Z" fill="white"/>
<path fill-rule="evenodd" clip-rule="evenodd" d="M91.7425 13.1342C91.3055 13.1342 90.8815 12.9922 90.4645 12.7072C90.0485 12.4222 89.7755 12.0232 89.6475 11.5092L90.3515 11.2242C90.4345 11.5532 90.6055 11.8312 90.8665 12.0572C91.1275 12.2832 91.4185 12.3972 91.7425 12.3972C92.0765 12.3972 92.3645 12.3092 92.6015 12.1332C92.8395 11.9572 92.9565 11.7182 92.9565 11.4162C92.9565 11.0812 92.8395 10.8232 92.6015 10.6412C92.3645 10.4602 91.9885 10.2912 91.4745 10.1342C90.9435 9.96721 90.5415 9.75021 90.2675 9.48521C89.9935 9.21921 89.8555 8.88021 89.8555 8.46721C89.8555 8.03621 90.0265 7.66221 90.3685 7.34421C90.7095 7.02621 91.1535 6.86621 91.7005 6.86621C92.2095 6.86621 92.6225 6.99321 92.9395 7.24721C93.2595 7.50221 93.4655 7.78021 93.5595 8.08121L92.8565 8.37421C92.8055 8.18521 92.6825 8.00921 92.4845 7.84621C92.2855 7.68521 92.0305 7.60421 91.7175 7.60421C91.4215 7.60421 91.1685 7.68621 90.9595 7.85121C90.7495 8.01621 90.6445 8.22121 90.6445 8.46721C90.6445 8.69021 90.7415 8.87921 90.9335 9.03221C91.1275 9.18621 91.4105 9.32421 91.7845 9.44721C92.0805 9.54221 92.3265 9.63421 92.5265 9.72421C92.7245 9.81321 92.9265 9.93221 93.1295 10.0802C93.3335 10.2282 93.4855 10.4122 93.5895 10.6332C93.6935 10.8542 93.7445 11.1092 93.7445 11.4002C93.7445 11.6902 93.6845 11.9502 93.5645 12.1792C93.4455 12.4082 93.2855 12.5902 93.0875 12.7242C92.8885 12.8582 92.6765 12.9602 92.4465 13.0302C92.2175 13.0992 91.9825 13.1342 91.7425 13.1342Z" stroke="white" stroke-width="0.2"/>
<path fill-rule="evenodd" clip-rule="evenodd" d="M96.9378 13.134C96.2768 13.134 95.7438 12.916 95.3318 12.481C94.9218 12.045 94.7168 11.475 94.7168 10.771V7H95.4878V10.805C95.4878 11.28 95.6108 11.663 95.8608 11.957C96.1088 12.25 96.4678 12.397 96.9378 12.397C97.4068 12.397 97.7648 12.25 98.0138 11.957C98.2618 11.663 98.3858 11.28 98.3858 10.805V7H99.1578V10.771C99.1578 11.481 98.9578 12.052 98.5578 12.485C98.1598 12.918 97.6188 13.134 96.9378 13.134Z" fill="white"/>
<path fill-rule="evenodd" clip-rule="evenodd" d="M96.9378 13.134C96.2768 13.134 95.7438 12.916 95.3318 12.481C94.9218 12.045 94.7168 11.475 94.7168 10.771V7H95.4878V10.805C95.4878 11.28 95.6108 11.663 95.8608 11.957C96.1088 12.25 96.4678 12.397 96.9378 12.397C97.4068 12.397 97.7648 12.25 98.0138 11.957C98.2618 11.663 98.3858 11.28 98.3858 10.805V7H99.1578V10.771C99.1578 11.481 98.9578 12.052 98.5578 12.485C98.1598 12.918 97.6188 13.134 96.9378 13.134Z" stroke="white" stroke-width="0.2"/>
<path fill-rule="evenodd" clip-rule="evenodd" d="M101.167 9.849H102.407C102.715 9.849 102.979 9.748 103.199 9.547C103.42 9.347 103.53 9.092 103.53 8.785C103.53 8.522 103.433 8.282 103.238 8.064C103.042 7.846 102.782 7.737 102.459 7.737H101.167V9.849ZM100.396 13V7H102.442C102.949 7 103.39 7.169 103.761 7.507C104.133 7.845 104.318 8.271 104.318 8.785C104.318 9.204 104.182 9.574 103.907 9.895C103.634 10.217 103.293 10.419 102.885 10.503L102.868 10.528L104.553 12.967V13H103.64L102.022 10.57H101.167V13H100.396Z" fill="white"/>
<path fill-rule="evenodd" clip-rule="evenodd" d="M101.167 9.849H102.407C102.715 9.849 102.979 9.748 103.199 9.547C103.42 9.347 103.53 9.092 103.53 8.785C103.53 8.522 103.433 8.282 103.238 8.064C103.042 7.846 102.782 7.737 102.459 7.737H101.167V9.849ZM100.396 13V7H102.442C102.949 7 103.39 7.169 103.761 7.507C104.133 7.845 104.318 8.271 104.318 8.785C104.318 9.204 104.182 9.574 103.907 9.895C103.634 10.217 103.293 10.419 102.885 10.503L102.868 10.528L104.553 12.967V13H103.64L102.022 10.57H101.167V13H100.396Z" stroke="white" stroke-width="0.2"/>
</g>
</g>
<defs>
<linearGradient id="paint0_linear_11241_55345" x1="24.8263" y1="23.9748" x2="6.6876" y2="42.1135" gradientUnits="userSpaceOnUse">
<stop stop-color="#FF3A44"/>
<stop offset="1" stop-color="#C31162"/>
</linearGradient>
<clipPath id="clip0_11241_55345">
<rect width="135" height="40" fill="white"/>
</clipPath>
</defs>
</svg>
